<svg width="180" height="106" viewBox="0 0 180 106" fill="none" xmlns="http://www.w3.org/2000/svg">
<g filter="url(#filter0_d_200_103)">
<rect width="172" height="98" fill="#3C59F0"/>
</g>
<path d="M2.87642 31.8182H7.67045L16.0057 52.1705H16.3125L24.6477 31.8182H29.4418V58H25.6832V39.054H25.4403L17.7188 57.9616H14.5994L6.87784 39.0412H6.63494V58H2.87642V31.8182ZM37.2944 65.3636C36.7234 65.3636 36.2035 65.3168 35.7347 65.223C35.266 65.1378 34.9165 65.044 34.6864 64.9418L35.6069 61.8097C36.3058 61.9972 36.9279 62.0781 37.4734 62.0526C38.0188 62.027 38.5004 61.8224 38.918 61.4389C39.3441 61.0554 39.7191 60.429 40.043 59.5597L40.516 58.2557L33.3313 38.3636H37.4222L42.3952 53.6023H42.5998L47.5728 38.3636H51.6765L43.5842 60.6207C43.2092 61.6435 42.7319 62.5085 42.1523 63.2159C41.5728 63.9318 40.8825 64.4688 40.0813 64.8267C39.2802 65.1847 38.3512 65.3636 37.2944 65.3636ZM70.2294 58L62.968 31.8182H67.1229L72.2237 52.0938H72.4666L77.772 31.8182H81.8885L87.1939 52.1065H87.4368L92.5249 31.8182H96.6925L89.4183 58H85.4425L79.9325 38.3892H79.728L74.218 58H70.2294ZM106.325 58.3963C104.484 58.3963 102.878 57.9744 101.506 57.1307C100.134 56.2869 99.0682 55.1065 98.3097 53.5895C97.5511 52.0724 97.1719 50.2997 97.1719 48.2713C97.1719 46.2344 97.5511 44.4531 98.3097 42.9276C99.0682 41.402 100.134 40.2173 101.506 39.3736C102.878 38.5298 104.484 38.108 106.325 38.108C108.166 38.108 109.773 38.5298 111.145 39.3736C112.517 40.2173 113.582 41.402 114.341 42.9276C115.099 44.4531 115.479 46.2344 115.479 48.2713C115.479 50.2997 115.099 52.0724 114.341 53.5895C113.582 55.1065 112.517 56.2869 111.145 57.1307C109.773 57.9744 108.166 58.3963 106.325 58.3963ZM106.338 55.1875C107.531 55.1875 108.52 54.8722 109.304 54.2415C110.088 53.6108 110.668 52.7713 111.043 51.723C111.426 50.6747 111.618 49.5199 111.618 48.2585C111.618 47.0057 111.426 45.8551 111.043 44.8068C110.668 43.75 110.088 42.902 109.304 42.2628C108.52 41.6236 107.531 41.304 106.338 41.304C105.136 41.304 104.139 41.6236 103.347 42.2628C102.563 42.902 101.979 43.75 101.595 44.8068C101.22 45.8551 101.033 47.0057 101.033 48.2585C101.033 49.5199 101.22 50.6747 101.595 51.723C101.979 52.7713 102.563 53.6108 103.347 54.2415C104.139 54.8722 105.136 55.1875 106.338 55.1875ZM119.745 58V38.3636H123.44V41.483H123.645C124.002 40.4261 124.633 39.5952 125.537 38.9901C126.449 38.3764 127.48 38.0696 128.63 38.0696C128.869 38.0696 129.15 38.0781 129.474 38.0952C129.806 38.1122 130.066 38.1335 130.254 38.1591V41.8153C130.1 41.7727 129.828 41.7259 129.436 41.6747C129.044 41.6151 128.652 41.5852 128.26 41.5852C127.356 41.5852 126.551 41.777 125.843 42.1605C125.145 42.5355 124.591 43.0597 124.181 43.733C123.772 44.3977 123.568 45.1562 123.568 46.0085V58H119.745ZM137.077 51.3395L137.052 46.6733H137.717L145.54 38.3636H150.117L141.194 47.8239H140.593L137.077 51.3395ZM133.562 58V31.8182H137.384V58H133.562ZM145.962 58L138.931 48.6676L141.565 45.9957L150.654 58H145.962ZM168.315 43.1577L164.851 43.7713C164.706 43.3281 164.476 42.9062 164.161 42.5057C163.854 42.1051 163.436 41.777 162.908 41.5213C162.379 41.2656 161.719 41.1378 160.926 41.1378C159.844 41.1378 158.94 41.3807 158.216 41.8665C157.491 42.3437 157.129 42.9616 157.129 43.7202C157.129 44.3764 157.372 44.9048 157.858 45.3054C158.344 45.706 159.128 46.0341 160.21 46.2898L163.33 47.0057C165.136 47.4233 166.483 48.0668 167.369 48.9361C168.256 49.8054 168.699 50.9347 168.699 52.3239C168.699 53.5 168.358 54.5483 167.676 55.4688C167.003 56.3807 166.061 57.0966 164.851 57.6165C163.649 58.1364 162.256 58.3963 160.67 58.3963C158.472 58.3963 156.678 57.9276 155.288 56.9901C153.899 56.044 153.047 54.7017 152.732 52.9631L156.426 52.4006C156.656 53.3636 157.129 54.0923 157.845 54.5866C158.561 55.0724 159.494 55.3153 160.645 55.3153C161.898 55.3153 162.899 55.0554 163.649 54.5355C164.399 54.0071 164.774 53.3636 164.774 52.6051C164.774 51.9915 164.544 51.4759 164.084 51.0582C163.632 50.6406 162.938 50.3253 162 50.1122L158.676 49.3835C156.844 48.9659 155.489 48.3011 154.611 47.3892C153.741 46.4773 153.307 45.3224 153.307 43.9247C153.307 42.7656 153.631 41.7514 154.278 40.8821C154.926 40.0128 155.821 39.3352 156.963 38.8494C158.105 38.3551 159.413 38.108 160.888 38.108C163.01 38.108 164.68 38.5682 165.899 39.4886C167.118 40.4006 167.923 41.6236 168.315 43.1577Z" fill="#FFADAD"/>
<defs>
<filter id="filter0_d_200_103" x="0" y="0" width="180" height="106" filterUnits="userSpaceOnUse" color-interpolation-filters="sRGB">
<feFlood flood-opacity="0" result="BackgroundImageFix"/>
<feColorMatrix in="SourceAlpha" type="matrix" values="0 0 0 0 0 0 0 0 0 0 0 0 0 0 0 0 0 0 127 0" result="hardAlpha"/>
<feOffset dx="4" dy="4"/>
<feGaussianBlur stdDeviation="2"/>
<feComposite in2="hardAlpha" operator="out"/>
<feColorMatrix type="matrix" values="0 0 0 0 0 0 0 0 0 0 0 0 0 0 0 0 0 0 0.25 0"/>
<feBlend mode="normal" in2="BackgroundImageFix" result="effect1_dropShadow_200_103"/>
<feBlend mode="normal" in="SourceGraphic" in2="effect1_dropShadow_200_103" result="shape"/>
</filter>
</defs>
</svg>
