<svg width="423" height="106" viewBox="0 0 423 106" fill="none" xmlns="http://www.w3.org/2000/svg">
<g filter="url(#filter0_d_196_12)">
<rect width="354" height="98" fill="#3C59F0"/>
</g>
<path d="M148.528 66V36.9091H154.679V48.9119H167.165V36.9091H173.301V66H167.165V53.983H154.679V66H148.528ZM188.116 66.4261C185.91 66.4261 184.002 65.9574 182.392 65.0199C180.792 64.0729 179.556 62.7566 178.685 61.071C177.813 59.3759 177.378 57.411 177.378 55.1761C177.378 52.9223 177.813 50.9527 178.685 49.267C179.556 47.572 180.792 46.2557 182.392 45.3182C184.002 44.3712 185.91 43.8977 188.116 43.8977C190.323 43.8977 192.226 44.3712 193.827 45.3182C195.437 46.2557 196.677 47.572 197.548 49.267C198.42 50.9527 198.855 52.9223 198.855 55.1761C198.855 57.411 198.42 59.3759 197.548 61.071C196.677 62.7566 195.437 64.0729 193.827 65.0199C192.226 65.9574 190.323 66.4261 188.116 66.4261ZM188.145 61.7386C189.149 61.7386 189.987 61.4545 190.659 60.8864C191.331 60.3087 191.838 59.5227 192.179 58.5284C192.529 57.5341 192.705 56.4025 192.705 55.1335C192.705 53.8646 192.529 52.733 192.179 51.7386C191.838 50.7443 191.331 49.9583 190.659 49.3807C189.987 48.803 189.149 48.5142 188.145 48.5142C187.132 48.5142 186.279 48.803 185.588 49.3807C184.906 49.9583 184.39 50.7443 184.04 51.7386C183.699 52.733 183.528 53.8646 183.528 55.1335C183.528 56.4025 183.699 57.5341 184.04 58.5284C184.39 59.5227 184.906 60.3087 185.588 60.8864C186.279 61.4545 187.132 61.7386 188.145 61.7386ZM202.79 66V44.1818H208.557V48.0312H208.812C209.267 46.7528 210.025 45.7443 211.085 45.0057C212.146 44.267 213.415 43.8977 214.892 43.8977C216.388 43.8977 217.662 44.2718 218.713 45.0199C219.764 45.7585 220.465 46.7623 220.815 48.0312H221.043C221.488 46.7812 222.293 45.7822 223.457 45.0341C224.632 44.2765 226.019 43.8977 227.619 43.8977C229.655 43.8977 231.308 44.5464 232.577 45.8438C233.855 47.1316 234.494 48.9593 234.494 51.3267V66H228.457V52.5199C228.457 51.3078 228.135 50.3987 227.491 49.7926C226.848 49.1866 226.043 48.8835 225.077 48.8835C223.978 48.8835 223.121 49.2339 222.506 49.9347C221.89 50.6259 221.582 51.5398 221.582 52.6761V66H215.716V52.392C215.716 51.322 215.408 50.4697 214.793 49.8352C214.187 49.2008 213.386 48.8835 212.392 48.8835C211.72 48.8835 211.114 49.054 210.574 49.3949C210.044 49.7263 209.622 50.1951 209.31 50.8011C208.997 51.3977 208.841 52.0985 208.841 52.9034V66H202.79ZM249.217 66.4261C246.973 66.4261 245.041 65.9716 243.422 65.0625C241.812 64.1439 240.571 62.8466 239.7 61.1705C238.829 59.4848 238.393 57.4915 238.393 55.1903C238.393 52.946 238.829 50.9763 239.7 49.2812C240.571 47.5862 241.798 46.2652 243.379 45.3182C244.97 44.3712 246.836 43.8977 248.976 43.8977C250.415 43.8977 251.755 44.1297 252.996 44.5938C254.246 45.0483 255.335 45.7348 256.263 46.6534C257.2 47.572 257.929 48.7273 258.45 50.1193C258.971 51.5019 259.232 53.1212 259.232 54.9773V56.6392H240.808V52.8892H253.536C253.536 52.018 253.346 51.2462 252.967 50.5739C252.589 49.9015 252.063 49.3759 251.391 48.9972C250.728 48.6089 249.956 48.4148 249.075 48.4148C248.157 48.4148 247.342 48.6278 246.632 49.054C245.931 49.4706 245.382 50.0341 244.984 50.7443C244.587 51.4451 244.383 52.2263 244.374 53.0881V56.6534C244.374 57.733 244.572 58.6657 244.97 59.4517C245.377 60.2377 245.95 60.8438 246.689 61.2699C247.428 61.696 248.304 61.9091 249.317 61.9091C249.989 61.9091 250.605 61.8144 251.163 61.625C251.722 61.4356 252.2 61.1515 252.598 60.7727C252.996 60.3939 253.299 59.9299 253.507 59.3807L259.104 59.75C258.82 61.0947 258.237 62.2689 257.357 63.2727C256.485 64.267 255.358 65.0436 253.976 65.6023C252.603 66.1515 251.017 66.4261 249.217 66.4261Z" fill="#292020"/>
<path d="M99.8 67V49.7059H111.2V67H125.45V43.9412H134L105.5 18L77 43.9412H85.55V67H99.8Z" fill="#232C3D"/>
<defs>
<filter id="filter0_d_196_12" x="0" y="0" width="362" height="106" filterUnits="userSpaceOnUse" color-interpolation-filters="sRGB">
<feFlood flood-opacity="0" result="BackgroundImageFix"/>
<feColorMatrix in="SourceAlpha" type="matrix" values="0 0 0 0 0 0 0 0 0 0 0 0 0 0 0 0 0 0 127 0" result="hardAlpha"/>
<feOffset dx="4" dy="4"/>
<feGaussianBlur stdDeviation="2"/>
<feComposite in2="hardAlpha" operator="out"/>
<feColorMatrix type="matrix" values="0 0 0 0 0 0 0 0 0 0 0 0 0 0 0 0 0 0 0.25 0"/>
<feBlend mode="normal" in2="BackgroundImageFix" result="effect1_dropShadow_196_12"/>
<feBlend mode="normal" in="SourceGraphic" in2="effect1_dropShadow_196_12" result="shape"/>
</filter>
</defs>
</svg>
