<svg width="346" height="62" viewBox="0 0 346 62" fill="none" xmlns="http://www.w3.org/2000/svg">
<path d="M71.5284 48V18.9091H77.679V30.9119H90.1648V18.9091H96.3011V48H90.1648V35.983H77.679V48H71.5284ZM111.116 48.4261C108.91 48.4261 107.002 47.9574 105.392 47.0199C103.792 46.0729 102.556 44.7566 101.685 43.071C100.813 41.3759 100.378 39.411 100.378 37.1761C100.378 34.9223 100.813 32.9527 101.685 31.267C102.556 29.572 103.792 28.2557 105.392 27.3182C107.002 26.3712 108.91 25.8977 111.116 25.8977C113.323 25.8977 115.226 26.3712 116.827 27.3182C118.437 28.2557 119.677 29.572 120.548 31.267C121.42 32.9527 121.855 34.9223 121.855 37.1761C121.855 39.411 121.42 41.3759 120.548 43.071C119.677 44.7566 118.437 46.0729 116.827 47.0199C115.226 47.9574 113.323 48.4261 111.116 48.4261ZM111.145 43.7386C112.149 43.7386 112.987 43.4545 113.659 42.8864C114.331 42.3087 114.838 41.5227 115.179 40.5284C115.529 39.5341 115.705 38.4025 115.705 37.1335C115.705 35.8646 115.529 34.733 115.179 33.7386C114.838 32.7443 114.331 31.9583 113.659 31.3807C112.987 30.803 112.149 30.5142 111.145 30.5142C110.132 30.5142 109.279 30.803 108.588 31.3807C107.906 31.9583 107.39 32.7443 107.04 33.7386C106.699 34.733 106.528 35.8646 106.528 37.1335C106.528 38.4025 106.699 39.5341 107.04 40.5284C107.39 41.5227 107.906 42.3087 108.588 42.8864C109.279 43.4545 110.132 43.7386 111.145 43.7386ZM125.79 48V26.1818H131.557V30.0312H131.812C132.267 28.7528 133.025 27.7443 134.085 27.0057C135.146 26.267 136.415 25.8977 137.892 25.8977C139.388 25.8977 140.662 26.2718 141.713 27.0199C142.764 27.7585 143.465 28.7623 143.815 30.0312H144.043C144.488 28.7812 145.293 27.7822 146.457 27.0341C147.632 26.2765 149.019 25.8977 150.619 25.8977C152.655 25.8977 154.308 26.5464 155.577 27.8438C156.855 29.1316 157.494 30.9593 157.494 33.3267V48H151.457V34.5199C151.457 33.3078 151.135 32.3987 150.491 31.7926C149.848 31.1866 149.043 30.8835 148.077 30.8835C146.978 30.8835 146.121 31.2339 145.506 31.9347C144.89 32.6259 144.582 33.5398 144.582 34.6761V48H138.716V34.392C138.716 33.322 138.408 32.4697 137.793 31.8352C137.187 31.2008 136.386 30.8835 135.392 30.8835C134.72 30.8835 134.114 31.054 133.574 31.3949C133.044 31.7263 132.622 32.1951 132.31 32.8011C131.997 33.3977 131.841 34.0985 131.841 34.9034V48H125.79ZM172.217 48.4261C169.973 48.4261 168.041 47.9716 166.422 47.0625C164.812 46.1439 163.571 44.8466 162.7 43.1705C161.829 41.4848 161.393 39.4915 161.393 37.1903C161.393 34.946 161.829 32.9763 162.7 31.2812C163.571 29.5862 164.798 28.2652 166.379 27.3182C167.97 26.3712 169.836 25.8977 171.976 25.8977C173.415 25.8977 174.755 26.1297 175.996 26.5938C177.246 27.0483 178.335 27.7348 179.263 28.6534C180.2 29.572 180.929 30.7273 181.45 32.1193C181.971 33.5019 182.232 35.1212 182.232 36.9773V38.6392H163.808V34.8892H176.536C176.536 34.018 176.346 33.2462 175.967 32.5739C175.589 31.9015 175.063 31.3759 174.391 30.9972C173.728 30.6089 172.956 30.4148 172.075 30.4148C171.157 30.4148 170.342 30.6278 169.632 31.054C168.931 31.4706 168.382 32.0341 167.984 32.7443C167.587 33.4451 167.383 34.2263 167.374 35.0881V38.6534C167.374 39.733 167.572 40.6657 167.97 41.4517C168.377 42.2377 168.95 42.8438 169.689 43.2699C170.428 43.696 171.304 43.9091 172.317 43.9091C172.989 43.9091 173.605 43.8144 174.163 43.625C174.722 43.4356 175.2 43.1515 175.598 42.7727C175.996 42.3939 176.299 41.9299 176.507 41.3807L182.104 41.75C181.82 43.0947 181.237 44.2689 180.357 45.2727C179.485 46.267 178.358 47.0436 176.976 47.6023C175.603 48.1515 174.017 48.4261 172.217 48.4261Z" fill="#292020"/>
<path d="M22.8 49V31.7059H34.2V49H48.45V25.9412H57L28.5 0L0 25.9412H8.55V49H22.8Z" fill="#232C3D"/>
</svg>
