<svg width="362" height="106" viewBox="0 0 362 106" fill="none" xmlns="http://www.w3.org/2000/svg">
<g filter="url(#filter0_d_200_45)">
<rect width="354" height="98" fill="#3C59F0"/>
</g>
<path d="M80.3523 58H71.8764V31.8182H80.6207C83.1861 31.8182 85.3892 32.3423 87.2301 33.3906C89.071 34.4304 90.4815 35.9261 91.4616 37.8778C92.4503 39.821 92.9446 42.152 92.9446 44.8707C92.9446 47.598 92.446 49.9418 91.4489 51.902C90.4602 53.8622 89.0284 55.3707 87.1534 56.4276C85.2784 57.4759 83.0114 58 80.3523 58ZM75.8267 54.5483H80.1349C82.1293 54.5483 83.7869 54.1733 85.108 53.4233C86.429 52.6648 87.4176 51.5696 88.0739 50.1378C88.7301 48.6974 89.0582 46.9418 89.0582 44.8707C89.0582 42.8168 88.7301 41.0739 88.0739 39.642C87.4261 38.2102 86.4588 37.1236 85.1719 36.3821C83.8849 35.6406 82.2869 35.2699 80.3778 35.2699H75.8267V54.5483ZM103.265 58.4347C102.02 58.4347 100.895 58.2045 99.8896 57.7443C98.8839 57.2756 98.087 56.598 97.4989 55.7116C96.9194 54.8253 96.6296 53.7386 96.6296 52.4517C96.6296 51.3437 96.8427 50.4318 97.2688 49.7159C97.695 49 98.2702 48.4332 98.9947 48.0156C99.7191 47.598 100.529 47.2827 101.424 47.0696C102.319 46.8565 103.23 46.6946 104.159 46.5838C105.336 46.4474 106.29 46.3366 107.023 46.2514C107.756 46.1577 108.289 46.0085 108.621 45.804C108.953 45.5994 109.12 45.267 109.12 44.8068V44.7173C109.12 43.6009 108.804 42.7358 108.174 42.1222C107.551 41.5085 106.623 41.2017 105.387 41.2017C104.1 41.2017 103.086 41.4872 102.344 42.0582C101.611 42.6207 101.104 43.2472 100.823 43.9375L97.2305 43.1193C97.6566 41.9261 98.2788 40.9631 99.0969 40.2301C99.9237 39.4886 100.874 38.9517 101.948 38.6193C103.022 38.2784 104.151 38.108 105.336 38.108C106.12 38.108 106.951 38.2017 107.828 38.3892C108.715 38.5682 109.542 38.9006 110.309 39.3864C111.084 39.8722 111.719 40.5668 112.213 41.4702C112.708 42.3651 112.955 43.5284 112.955 44.9602V58H109.222V55.3153H109.069C108.821 55.8097 108.451 56.2955 107.956 56.7727C107.462 57.25 106.827 57.6463 106.051 57.9616C105.276 58.277 104.347 58.4347 103.265 58.4347ZM104.096 55.3665C105.152 55.3665 106.056 55.1577 106.806 54.7401C107.564 54.3224 108.14 53.777 108.532 53.1037C108.932 52.4219 109.132 51.6932 109.132 50.9176V48.3864C108.996 48.5227 108.732 48.6506 108.34 48.7699C107.956 48.8807 107.517 48.9787 107.023 49.0639C106.529 49.1406 106.047 49.2131 105.578 49.2812C105.11 49.3409 104.718 49.392 104.402 49.4347C103.661 49.5284 102.983 49.6861 102.37 49.9077C101.765 50.1293 101.279 50.4489 100.912 50.8665C100.554 51.2756 100.375 51.821 100.375 52.5028C100.375 53.4489 100.725 54.1648 101.424 54.6506C102.123 55.1278 103.013 55.3665 104.096 55.3665ZM132.761 43.1577L129.296 43.7713C129.151 43.3281 128.921 42.9062 128.606 42.5057C128.299 42.1051 127.881 41.777 127.353 41.5213C126.825 41.2656 126.164 41.1378 125.371 41.1378C124.289 41.1378 123.386 41.3807 122.661 41.8665C121.937 42.3437 121.575 42.9616 121.575 43.7202C121.575 44.3764 121.817 44.9048 122.303 45.3054C122.789 45.706 123.573 46.0341 124.656 46.2898L127.775 47.0057C129.582 47.4233 130.928 48.0668 131.815 48.9361C132.701 49.8054 133.144 50.9347 133.144 52.3239C133.144 53.5 132.803 54.5483 132.121 55.4688C131.448 56.3807 130.506 57.0966 129.296 57.6165C128.094 58.1364 126.701 58.3963 125.116 58.3963C122.917 58.3963 121.123 57.9276 119.734 56.9901C118.344 56.044 117.492 54.7017 117.177 52.9631L120.871 52.4006C121.102 53.3636 121.575 54.0923 122.29 54.5866C123.006 55.0724 123.94 55.3153 125.09 55.3153C126.343 55.3153 127.344 55.0554 128.094 54.5355C128.844 54.0071 129.219 53.3636 129.219 52.6051C129.219 51.9915 128.989 51.4759 128.529 51.0582C128.077 50.6406 127.383 50.3253 126.445 50.1122L123.121 49.3835C121.289 48.9659 119.934 48.3011 119.056 47.3892C118.187 46.4773 117.752 45.3224 117.752 43.9247C117.752 42.7656 118.076 41.7514 118.724 40.8821C119.371 40.0128 120.266 39.3352 121.408 38.8494C122.55 38.3551 123.859 38.108 125.333 38.108C127.455 38.108 129.126 38.5682 130.344 39.4886C131.563 40.4006 132.369 41.6236 132.761 43.1577ZM141.169 46.3409V58H137.347V31.8182H141.118V41.5597H141.361C141.821 40.5028 142.525 39.6634 143.471 39.0412C144.417 38.419 145.652 38.108 147.178 38.108C148.525 38.108 149.701 38.3849 150.706 38.9389C151.721 39.4929 152.505 40.3196 153.059 41.419C153.621 42.5099 153.902 43.8736 153.902 45.5099V58H150.08V45.9702C150.08 44.5298 149.709 43.4134 148.968 42.6207C148.226 41.8196 147.195 41.419 145.874 41.419C144.971 41.419 144.161 41.6108 143.445 41.9943C142.738 42.3778 142.179 42.9403 141.77 43.6818C141.37 44.4148 141.169 45.3011 141.169 46.3409ZM159.31 58V31.8182H163.132V41.5469H163.363C163.584 41.1378 163.904 40.6648 164.321 40.1278C164.739 39.5909 165.319 39.1222 166.06 38.7216C166.801 38.3125 167.782 38.108 169 38.108C170.586 38.108 172 38.5085 173.245 39.3097C174.489 40.1108 175.465 41.2656 176.172 42.7741C176.888 44.2827 177.246 46.098 177.246 48.2202C177.246 50.3423 176.892 52.1619 176.185 53.679C175.478 55.1875 174.506 56.3509 173.27 57.169C172.034 57.9787 170.624 58.3835 169.039 58.3835C167.846 58.3835 166.87 58.1832 166.111 57.7827C165.361 57.3821 164.773 56.9134 164.347 56.3764C163.921 55.8395 163.593 55.3622 163.363 54.9446H163.043V58H159.31ZM163.056 48.1818C163.056 49.5625 163.256 50.7727 163.657 51.8125C164.057 52.8523 164.637 53.6662 165.395 54.2543C166.154 54.8338 167.083 55.1236 168.182 55.1236C169.324 55.1236 170.279 54.821 171.046 54.2159C171.813 53.6023 172.392 52.7713 172.784 51.723C173.185 50.6747 173.385 49.4943 173.385 48.1818C173.385 46.8864 173.189 45.723 172.797 44.6918C172.414 43.6605 171.834 42.8466 171.059 42.25C170.292 41.6534 169.333 41.3551 168.182 41.3551C167.074 41.3551 166.137 41.6406 165.37 42.2116C164.611 42.7827 164.036 43.5795 163.644 44.6023C163.252 45.625 163.056 46.8182 163.056 48.1818ZM189.81 58.3963C187.969 58.3963 186.362 57.9744 184.99 57.1307C183.618 56.2869 182.553 55.1065 181.794 53.5895C181.036 52.0724 180.656 50.2997 180.656 48.2713C180.656 46.2344 181.036 44.4531 181.794 42.9276C182.553 41.402 183.618 40.2173 184.99 39.3736C186.362 38.5298 187.969 38.108 189.81 38.108C191.651 38.108 193.257 38.5298 194.629 39.3736C196.001 40.2173 197.067 41.402 197.825 42.9276C198.584 44.4531 198.963 46.2344 198.963 48.2713C198.963 50.2997 198.584 52.0724 197.825 53.5895C197.067 55.1065 196.001 56.2869 194.629 57.1307C193.257 57.9744 191.651 58.3963 189.81 58.3963ZM189.822 55.1875C191.016 55.1875 192.004 54.8722 192.788 54.2415C193.572 53.6108 194.152 52.7713 194.527 51.723C194.911 50.6747 195.102 49.5199 195.102 48.2585C195.102 47.0057 194.911 45.8551 194.527 44.8068C194.152 43.75 193.572 42.902 192.788 42.2628C192.004 41.6236 191.016 41.304 189.822 41.304C188.621 41.304 187.624 41.6236 186.831 42.2628C186.047 42.902 185.463 43.75 185.08 44.8068C184.705 45.8551 184.517 47.0057 184.517 48.2585C184.517 49.5199 184.705 50.6747 185.08 51.723C185.463 52.7713 186.047 53.6108 186.831 54.2415C187.624 54.8722 188.621 55.1875 189.822 55.1875ZM208.944 58.4347C207.7 58.4347 206.575 58.2045 205.569 57.7443C204.564 57.2756 203.767 56.598 203.179 55.7116C202.599 54.8253 202.309 53.7386 202.309 52.4517C202.309 51.3437 202.522 50.4318 202.949 49.7159C203.375 49 203.95 48.4332 204.674 48.0156C205.399 47.598 206.208 47.2827 207.103 47.0696C207.998 46.8565 208.91 46.6946 209.839 46.5838C211.015 46.4474 211.97 46.3366 212.703 46.2514C213.436 46.1577 213.968 46.0085 214.301 45.804C214.633 45.5994 214.799 45.267 214.799 44.8068V44.7173C214.799 43.6009 214.484 42.7358 213.853 42.1222C213.231 41.5085 212.302 41.2017 211.066 41.2017C209.779 41.2017 208.765 41.4872 208.024 42.0582C207.291 42.6207 206.784 43.2472 206.502 43.9375L202.91 43.1193C203.336 41.9261 203.958 40.9631 204.777 40.2301C205.603 39.4886 206.554 38.9517 207.627 38.6193C208.701 38.2784 209.831 38.108 211.015 38.108C211.799 38.108 212.63 38.2017 213.508 38.3892C214.395 38.5682 215.221 38.9006 215.988 39.3864C216.764 39.8722 217.399 40.5668 217.893 41.4702C218.387 42.3651 218.635 43.5284 218.635 44.9602V58H214.902V55.3153H214.748C214.501 55.8097 214.13 56.2955 213.636 56.7727C213.142 57.25 212.507 57.6463 211.731 57.9616C210.956 58.277 210.027 58.4347 208.944 58.4347ZM209.775 55.3665C210.832 55.3665 211.735 55.1577 212.485 54.7401C213.244 54.3224 213.819 53.777 214.211 53.1037C214.612 52.4219 214.812 51.6932 214.812 50.9176V48.3864C214.676 48.5227 214.412 48.6506 214.02 48.7699C213.636 48.8807 213.197 48.9787 212.703 49.0639C212.208 49.1406 211.727 49.2131 211.258 49.2812C210.789 49.3409 210.397 49.392 210.082 49.4347C209.341 49.5284 208.663 49.6861 208.049 49.9077C207.444 50.1293 206.958 50.4489 206.592 50.8665C206.234 51.2756 206.055 51.821 206.055 52.5028C206.055 53.4489 206.404 54.1648 207.103 54.6506C207.802 55.1278 208.693 55.3665 209.775 55.3665ZM223.726 58V38.3636H227.42V41.483H227.625C227.983 40.4261 228.614 39.5952 229.517 38.9901C230.429 38.3764 231.46 38.0696 232.611 38.0696C232.849 38.0696 233.131 38.0781 233.455 38.0952C233.787 38.1122 234.047 38.1335 234.234 38.1591V41.8153C234.081 41.7727 233.808 41.7259 233.416 41.6747C233.024 41.6151 232.632 41.5852 232.24 41.5852C231.337 41.5852 230.531 41.777 229.824 42.1605C229.125 42.5355 228.571 43.0597 228.162 43.733C227.753 44.3977 227.548 45.1562 227.548 46.0085V58H223.726ZM244.19 58.3835C242.605 58.3835 241.19 57.9787 239.946 57.169C238.71 56.3509 237.738 55.1875 237.031 53.679C236.332 52.1619 235.983 50.3423 235.983 48.2202C235.983 46.098 236.336 44.2827 237.044 42.7741C237.76 41.2656 238.74 40.1108 239.984 39.3097C241.228 38.5085 242.639 38.108 244.216 38.108C245.434 38.108 246.414 38.3125 247.156 38.7216C247.906 39.1222 248.485 39.5909 248.895 40.1278C249.312 40.6648 249.636 41.1378 249.866 41.5469H250.096V31.8182H253.919V58H250.186V54.9446H249.866C249.636 55.3622 249.304 55.8395 248.869 56.3764C248.443 56.9134 247.855 57.3821 247.105 57.7827C246.355 58.1832 245.383 58.3835 244.19 58.3835ZM245.034 55.1236C246.133 55.1236 247.062 54.8338 247.821 54.2543C248.588 53.6662 249.167 52.8523 249.559 51.8125C249.96 50.7727 250.16 49.5625 250.16 48.1818C250.16 46.8182 249.964 45.625 249.572 44.6023C249.18 43.5795 248.605 42.7827 247.846 42.2116C247.088 41.6406 246.15 41.3551 245.034 41.3551C243.883 41.3551 242.924 41.6534 242.157 42.25C241.39 42.8466 240.811 43.6605 240.419 44.6918C240.035 45.723 239.843 46.8864 239.843 48.1818C239.843 49.4943 240.039 50.6747 240.431 51.723C240.824 52.7713 241.403 53.6023 242.17 54.2159C242.946 54.821 243.9 55.1236 245.034 55.1236Z" fill="#100F0F"/>
<defs>
<filter id="filter0_d_200_45" x="0" y="0" width="362" height="106" filterUnits="userSpaceOnUse" color-interpolation-filters="sRGB">
<feFlood flood-opacity="0" result="BackgroundImageFix"/>
<feColorMatrix in="SourceAlpha" type="matrix" values="0 0 0 0 0 0 0 0 0 0 0 0 0 0 0 0 0 0 127 0" result="hardAlpha"/>
<feOffset dx="4" dy="4"/>
<feGaussianBlur stdDeviation="2"/>
<feComposite in2="hardAlpha" operator="out"/>
<feColorMatrix type="matrix" values="0 0 0 0 0 0 0 0 0 0 0 0 0 0 0 0 0 0 0.25 0"/>
<feBlend mode="normal" in2="BackgroundImageFix" result="effect1_dropShadow_200_45"/>
<feBlend mode="normal" in="SourceGraphic" in2="effect1_dropShadow_200_45" result="shape"/>
</filter>
</defs>
</svg>
