<svg width="445" height="65" viewBox="0 0 445 65" fill="none" xmlns="http://www.w3.org/2000/svg">
<g filter="url(#filter0_d_60_324)">
<rect width="437" height="57" rx="4" fill="#2164C9"/>
</g>
<path d="M179.085 13.8182L185.899 34.4261H186.168L192.969 13.8182H198.185L188.955 40H183.099L173.882 13.8182H179.085ZM206.376 13.8182V40H201.633V13.8182H206.376ZM211.512 40V13.8182H228.54V17.794H216.255V24.902H227.658V28.8778H216.255V36.0241H228.643V40H211.512ZM238.889 40L231.5 13.8182H236.601L241.318 33.0582H241.561L246.598 13.8182H251.239L256.288 33.071H256.518L261.236 13.8182H266.337L258.947 40H254.268L249.027 21.6293H248.822L243.568 40H238.889Z" fill="#E1F3F5"/>
<path d="M179.085 13.8182L180.035 13.5043L179.808 12.8182H179.085V13.8182ZM185.899 34.4261L184.95 34.7401L185.177 35.4261H185.899V34.4261ZM186.168 34.4261V35.4261H186.891L187.117 34.7395L186.168 34.4261ZM192.969 13.8182V12.8182H192.246L192.019 13.5048L192.969 13.8182ZM198.185 13.8182L199.128 14.1507L199.598 12.8182H198.185V13.8182ZM188.955 40V41H189.662L189.898 40.3325L188.955 40ZM183.099 40L182.156 40.3321L182.391 41H183.099V40ZM173.882 13.8182V12.8182H172.47L172.939 14.1503L173.882 13.8182ZM178.136 14.1321L184.95 34.7401L186.849 34.1122L180.035 13.5043L178.136 14.1321ZM185.899 35.4261H186.168V33.4261H185.899V35.4261ZM187.117 34.7395L193.918 14.1316L192.019 13.5048L185.218 34.1127L187.117 34.7395ZM192.969 14.8182H198.185V12.8182H192.969V14.8182ZM197.242 13.4857L188.011 39.6675L189.898 40.3325L199.128 14.1507L197.242 13.4857ZM188.955 39H183.099V41H188.955V39ZM184.043 39.6679L174.825 13.4861L172.939 14.1503L182.156 40.3321L184.043 39.6679ZM173.882 14.8182H179.085V12.8182H173.882V14.8182ZM206.376 13.8182H207.376V12.8182H206.376V13.8182ZM206.376 40V41H207.376V40H206.376ZM201.633 40H200.633V41H201.633V40ZM201.633 13.8182V12.8182H200.633V13.8182H201.633ZM205.376 13.8182V40H207.376V13.8182H205.376ZM206.376 39H201.633V41H206.376V39ZM202.633 40V13.8182H200.633V40H202.633ZM201.633 14.8182H206.376V12.8182H201.633V14.8182ZM211.512 40H210.512V41H211.512V40ZM211.512 13.8182V12.8182H210.512V13.8182H211.512ZM228.54 13.8182H229.54V12.8182H228.54V13.8182ZM228.54 17.794V18.794H229.54V17.794H228.54ZM216.255 17.794V16.794H215.255V17.794H216.255ZM216.255 24.902H215.255V25.902H216.255V24.902ZM227.658 24.902H228.658V23.902H227.658V24.902ZM227.658 28.8778V29.8778H228.658V28.8778H227.658ZM216.255 28.8778V27.8778H215.255V28.8778H216.255ZM216.255 36.0241H215.255V37.0241H216.255V36.0241ZM228.643 36.0241H229.643V35.0241H228.643V36.0241ZM228.643 40V41H229.643V40H228.643ZM212.512 40V13.8182H210.512V40H212.512ZM211.512 14.8182H228.54V12.8182H211.512V14.8182ZM227.54 13.8182V17.794H229.54V13.8182H227.54ZM228.54 16.794H216.255V18.794H228.54V16.794ZM215.255 17.794V24.902H217.255V17.794H215.255ZM216.255 25.902H227.658V23.902H216.255V25.902ZM226.658 24.902V28.8778H228.658V24.902H226.658ZM227.658 27.8778H216.255V29.8778H227.658V27.8778ZM215.255 28.8778V36.0241H217.255V28.8778H215.255ZM216.255 37.0241H228.643V35.0241H216.255V37.0241ZM227.643 36.0241V40H229.643V36.0241H227.643ZM228.643 39H211.512V41H228.643V39ZM238.889 40L237.927 40.2716L238.132 41H238.889V40ZM231.5 13.8182V12.8182H230.179L230.538 14.0898L231.5 13.8182ZM236.601 13.8182L237.572 13.5801L237.385 12.8182H236.601V13.8182ZM241.318 33.0582L240.347 33.2964L240.534 34.0582H241.318V33.0582ZM241.561 33.0582V34.0582H242.333L242.528 33.3115L241.561 33.0582ZM246.598 13.8182V12.8182H245.826L245.631 13.5649L246.598 13.8182ZM251.239 13.8182L252.206 13.5645L252.01 12.8182H251.239V13.8182ZM256.288 33.071L255.321 33.3247L255.517 34.071H256.288V33.071ZM256.518 33.071V34.071H257.303L257.49 33.309L256.518 33.071ZM261.236 13.8182V12.8182H260.451L260.265 13.5802L261.236 13.8182ZM266.337 13.8182L267.299 14.0898L267.658 12.8182H266.337V13.8182ZM258.947 40V41H259.704L259.91 40.2716L258.947 40ZM254.268 40L253.307 40.2744L253.514 41H254.268V40ZM249.027 21.6293L249.989 21.3549L249.782 20.6293H249.027V21.6293ZM248.822 21.6293V20.6293H248.068L247.861 21.3543L248.822 21.6293ZM243.568 40V41H244.322L244.53 40.275L243.568 40ZM239.852 39.7284L232.462 13.5466L230.538 14.0898L237.927 40.2716L239.852 39.7284ZM231.5 14.8182H236.601V12.8182H231.5V14.8182ZM235.63 14.0563L240.347 33.2964L242.289 32.8201L237.572 13.5801L235.63 14.0563ZM241.318 34.0582H241.561V32.0582H241.318V34.0582ZM242.528 33.3115L247.565 14.0714L245.631 13.5649L240.594 32.805L242.528 33.3115ZM246.598 14.8182H251.239V12.8182H246.598V14.8182ZM250.271 14.0719L255.321 33.3247L257.256 32.8173L252.206 13.5645L250.271 14.0719ZM256.288 34.071H256.518V32.071H256.288V34.071ZM257.49 33.309L262.207 14.0562L260.265 13.5802L255.547 32.833L257.49 33.309ZM261.236 14.8182H266.337V12.8182H261.236V14.8182ZM265.374 13.5466L257.985 39.7284L259.91 40.2716L267.299 14.0898L265.374 13.5466ZM258.947 39H254.268V41H258.947V39ZM255.23 39.7256L249.989 21.3549L248.065 21.9036L253.307 40.2744L255.23 39.7256ZM249.027 20.6293H248.822V22.6293H249.027V20.6293ZM247.861 21.3543L242.607 39.725L244.53 40.275L249.784 21.9042L247.861 21.3543ZM243.568 39H238.889V41H243.568V39Z" fill="black" fill-opacity="0.25"/>
<defs>
<filter id="filter0_d_60_324" x="0" y="0" width="445" height="65" filterUnits="userSpaceOnUse" color-interpolation-filters="sRGB">
<feFlood flood-opacity="0" result="BackgroundImageFix"/>
<feColorMatrix in="SourceAlpha" type="matrix" values="0 0 0 0 0 0 0 0 0 0 0 0 0 0 0 0 0 0 127 0" result="hardAlpha"/>
<feOffset dx="4" dy="4"/>
<feGaussianBlur stdDeviation="2"/>
<feComposite in2="hardAlpha" operator="out"/>
<feColorMatrix type="matrix" values="0 0 0 0 0 0 0 0 0 0 0 0 0 0 0 0 0 0 0.25 0"/>
<feBlend mode="normal" in2="BackgroundImageFix" result="effect1_dropShadow_60_324"/>
<feBlend mode="normal" in="SourceGraphic" in2="effect1_dropShadow_60_324" result="shape"/>
</filter>
</defs>
</svg>
