<svg width="436" height="71" viewBox="0 0 436 71" fill="none" xmlns="http://www.w3.org/2000/svg">
<path d="M0 0H435.498V70.0741H0V0Z" fill="#D9D9D9"/>
<path d="M179.64 35.0002H177.333L180.848 24.8184H183.622L187.132 35.0002H184.825L182.275 27.1451H182.195L179.64 35.0002ZM179.496 30.9981H184.945V32.6785H179.496V30.9981Z" fill="black"/>
<path d="M196.863 28.383H194.685C194.645 28.1013 194.564 27.8511 194.441 27.6323C194.319 27.4103 194.161 27.2213 193.969 27.0656C193.777 26.9098 193.555 26.7905 193.303 26.7076C193.054 26.6247 192.784 26.5833 192.493 26.5833C191.966 26.5833 191.507 26.7142 191.116 26.9761C190.724 27.2346 190.421 27.6124 190.206 28.1096C189.99 28.6034 189.883 29.2033 189.883 29.9093C189.883 30.6352 189.99 31.245 190.206 31.7389C190.424 32.2327 190.729 32.6056 191.12 32.8575C191.512 33.1094 191.964 33.2353 192.478 33.2353C192.766 33.2353 193.033 33.1972 193.278 33.121C193.527 33.0447 193.747 32.9337 193.939 32.7879C194.132 32.6387 194.291 32.4581 194.417 32.246C194.546 32.0338 194.635 31.7919 194.685 31.5201L196.863 31.5301C196.806 31.9974 196.665 32.4481 196.44 32.8823C196.218 33.3132 195.918 33.6993 195.54 34.0407C195.166 34.3788 194.718 34.6472 194.198 34.8461C193.681 35.0417 193.096 35.1394 192.443 35.1394C191.535 35.1394 190.723 34.9339 190.007 34.5229C189.294 34.112 188.731 33.517 188.316 32.7381C187.906 31.9593 187.7 31.0163 187.7 29.9093C187.7 28.799 187.909 27.8544 188.326 27.0755C188.744 26.2966 189.311 25.7033 190.027 25.2957C190.743 24.8847 191.548 24.6792 192.443 24.6792C193.033 24.6792 193.58 24.7621 194.084 24.9278C194.591 25.0935 195.04 25.3354 195.431 25.6536C195.822 25.9685 196.14 26.3546 196.385 26.812C196.634 27.2694 196.793 27.7931 196.863 28.383Z" fill="black"/>
<path d="M207.39 28.383H205.212C205.173 28.1013 205.091 27.8511 204.969 27.6323C204.846 27.4103 204.689 27.2213 204.497 27.0656C204.304 26.9098 204.082 26.7905 203.83 26.7076C203.582 26.6247 203.312 26.5833 203.02 26.5833C202.493 26.5833 202.034 26.7142 201.643 26.9761C201.252 27.2346 200.948 27.6124 200.733 28.1096C200.518 28.6034 200.41 29.2033 200.41 29.9093C200.41 30.6352 200.518 31.245 200.733 31.7389C200.952 32.2327 201.257 32.6056 201.648 32.8575C202.039 33.1094 202.491 33.2353 203.005 33.2353C203.293 33.2353 203.56 33.1972 203.805 33.121C204.054 33.0447 204.274 32.9337 204.467 32.7879C204.659 32.6387 204.818 32.4581 204.944 32.246C205.073 32.0338 205.163 31.7919 205.212 31.5201L207.39 31.5301C207.334 31.9974 207.193 32.4481 206.967 32.8823C206.745 33.3132 206.445 33.6993 206.068 34.0407C205.693 34.3788 205.246 34.6472 204.725 34.8461C204.208 35.0417 203.623 35.1394 202.97 35.1394C202.062 35.1394 201.25 34.9339 200.534 34.5229C199.822 34.112 199.258 33.517 198.844 32.7381C198.433 31.9593 198.227 31.0163 198.227 29.9093C198.227 28.799 198.436 27.8544 198.854 27.0755C199.271 26.2966 199.838 25.7033 200.554 25.2957C201.27 24.8847 202.075 24.6792 202.97 24.6792C203.56 24.6792 204.107 24.7621 204.611 24.9278C205.118 25.0935 205.567 25.3354 205.958 25.6536C206.349 25.9685 206.667 26.3546 206.913 26.812C207.161 27.2694 207.32 27.7931 207.39 28.383Z" fill="black"/>
<path d="M208.934 35.0002V24.8184H215.794V26.5933H211.086V29.0194H215.441V30.7943H211.086V33.2254H215.814V35.0002H208.934Z" fill="black"/>
<path d="M217.506 35.0002V24.8184H221.523C222.295 24.8184 222.953 24.9659 223.497 25.2609C224.04 25.5525 224.455 25.9586 224.74 26.4789C225.028 26.996 225.172 27.5926 225.172 28.2687C225.172 28.9448 225.026 29.5414 224.735 30.0585C224.443 30.5755 224.02 30.9782 223.467 31.2666C222.917 31.5549 222.251 31.6991 221.468 31.6991H218.908V29.9739H221.12C221.535 29.9739 221.876 29.9027 222.144 29.7602C222.416 29.6143 222.618 29.4138 222.751 29.1586C222.887 28.9001 222.955 28.6034 222.955 28.2687C222.955 27.9306 222.887 27.6356 222.751 27.3837C222.618 27.1285 222.416 26.9313 222.144 26.7921C221.873 26.6496 221.528 26.5783 221.11 26.5783H219.659V35.0002H217.506Z" fill="black"/>
<path d="M226.183 26.5933V24.8184H234.545V26.5933H231.428V35.0002H229.3V26.5933H226.183Z" fill="black"/>
</svg>
