<svg width="222" height="65" viewBox="0 0 222 65" fill="none" xmlns="http://www.w3.org/2000/svg">
<g filter="url(#filter0_d_101_5)">
<rect width="214" height="57" rx="4" fill="#2164C9"/>
</g>
<path d="M61.0249 24.3828H58.8473C58.8075 24.1011 58.7263 23.8509 58.6037 23.6321C58.4811 23.41 58.3236 23.2211 58.1314 23.0653C57.9392 22.9096 57.7171 22.7902 57.4652 22.7074C57.2166 22.6245 56.9465 22.5831 56.6548 22.5831C56.1278 22.5831 55.6688 22.714 55.2777 22.9759C54.8866 23.2344 54.5833 23.6122 54.3679 24.1094C54.1525 24.6032 54.0447 25.2031 54.0447 25.9091C54.0447 26.6349 54.1525 27.2448 54.3679 27.7386C54.5866 28.2325 54.8916 28.6054 55.2827 28.8572C55.6738 29.1091 56.1262 29.2351 56.6399 29.2351C56.9283 29.2351 57.1951 29.197 57.4403 29.1207C57.6889 29.0445 57.9093 28.9335 58.1016 28.7876C58.2938 28.6385 58.4529 28.4579 58.5788 28.2457C58.7081 28.0336 58.7976 27.7917 58.8473 27.5199L61.0249 27.5298C60.9685 27.9972 60.8277 28.4479 60.6023 28.8821C60.3802 29.313 60.0803 29.6991 59.7024 30.0405C59.3279 30.3786 58.8804 30.647 58.3601 30.8459C57.843 31.0414 57.258 31.1392 56.6051 31.1392C55.697 31.1392 54.8849 30.9337 54.169 30.5227C53.4564 30.1117 52.893 29.5168 52.4787 28.7379C52.0677 27.959 51.8622 27.0161 51.8622 25.9091C51.8622 24.7988 52.071 23.8542 52.4886 23.0753C52.9063 22.2964 53.473 21.7031 54.1889 21.2955C54.9048 20.8845 55.7102 20.679 56.6051 20.679C57.1951 20.679 57.742 20.7618 58.2457 20.9276C58.7528 21.0933 59.2019 21.3352 59.593 21.6534C59.9841 21.9683 60.3023 22.3544 60.5476 22.8118C60.7962 23.2692 60.9553 23.7929 61.0249 24.3828ZM62.5685 31V20.8182H64.7212V29.2251H69.0863V31H62.5685ZM79.4719 25.9091C79.4719 27.0194 79.2615 27.964 78.8406 28.7429C78.4229 29.5218 77.8529 30.1167 77.1303 30.5277C76.4111 30.9354 75.6024 31.1392 74.7042 31.1392C73.7994 31.1392 72.9873 30.9337 72.2681 30.5227C71.5489 30.1117 70.9805 29.5168 70.5629 28.7379C70.1452 27.959 69.9364 27.0161 69.9364 25.9091C69.9364 24.7988 70.1452 23.8542 70.5629 23.0753C70.9805 22.2964 71.5489 21.7031 72.2681 21.2955C72.9873 20.8845 73.7994 20.679 74.7042 20.679C75.6024 20.679 76.4111 20.8845 77.1303 21.2955C77.8529 21.7031 78.4229 22.2964 78.8406 23.0753C79.2615 23.8542 79.4719 24.7988 79.4719 25.9091ZM77.2894 25.9091C77.2894 25.1899 77.1817 24.5833 76.9663 24.0895C76.7541 23.5956 76.4542 23.2211 76.0664 22.9659C75.6786 22.7107 75.2246 22.5831 74.7042 22.5831C74.1838 22.5831 73.7298 22.7107 73.342 22.9659C72.9542 23.2211 72.6526 23.5956 72.4371 24.0895C72.225 24.5833 72.119 25.1899 72.119 25.9091C72.119 26.6283 72.225 27.2348 72.4371 27.7287C72.6526 28.2225 72.9542 28.5971 73.342 28.8523C73.7298 29.1075 74.1838 29.2351 74.7042 29.2351C75.2246 29.2351 75.6786 29.1075 76.0664 28.8523C76.4542 28.5971 76.7541 28.2225 76.9663 27.7287C77.1817 27.2348 77.2894 26.6283 77.2894 25.9091ZM86.59 23.7464C86.5502 23.3454 86.3796 23.0339 86.0779 22.8118C85.7763 22.5897 85.367 22.4787 84.85 22.4787C84.4986 22.4787 84.202 22.5284 83.96 22.6278C83.7181 22.724 83.5325 22.8582 83.4032 23.0305C83.2773 23.2029 83.2143 23.3984 83.2143 23.6172C83.2077 23.7995 83.2458 23.9586 83.3287 24.0945C83.4148 24.2304 83.5325 24.348 83.6816 24.4474C83.8308 24.5436 84.0031 24.6281 84.1987 24.701C84.3942 24.7706 84.603 24.8303 84.8251 24.88L85.7399 25.0987C86.184 25.1982 86.5917 25.3307 86.9629 25.4964C87.3341 25.6622 87.6556 25.866 87.9274 26.108C88.1992 26.3499 88.4096 26.6349 88.5588 26.9631C88.7112 27.2912 88.7891 27.6674 88.7924 28.0916C88.7891 28.7147 88.63 29.255 88.3152 29.7124C88.0036 30.1664 87.5529 30.5194 86.9629 30.7713C86.3762 31.0199 85.6686 31.1442 84.84 31.1442C84.0181 31.1442 83.3021 31.0182 82.6923 30.7663C82.0858 30.5144 81.6118 30.1416 81.2704 29.6477C80.9324 29.1506 80.755 28.5357 80.7385 27.8033H82.8216C82.8448 28.1446 82.9425 28.4297 83.1149 28.6584C83.2905 28.8838 83.5242 29.0545 83.8159 29.1705C84.1109 29.2831 84.444 29.3395 84.8152 29.3395C85.1797 29.3395 85.4963 29.2865 85.7647 29.1804C86.0365 29.0743 86.247 28.9268 86.3961 28.7379C86.5453 28.549 86.6199 28.3319 86.6199 28.0866C86.6199 27.858 86.5519 27.6657 86.416 27.5099C86.2834 27.3542 86.0879 27.2216 85.8294 27.1122C85.5742 27.0028 85.2609 26.9034 84.8897 26.8139L83.7811 26.5355C82.9226 26.3267 82.2449 26.0002 81.7477 25.5561C81.2505 25.112 81.0036 24.5137 81.0069 23.7614C81.0036 23.1449 81.1677 22.6063 81.4991 22.1456C81.8339 21.6849 82.2929 21.3253 82.8762 21.0668C83.4596 20.8082 84.1225 20.679 84.8649 20.679C85.6206 20.679 86.2801 20.8082 86.8436 21.0668C87.4103 21.3253 87.8511 21.6849 88.166 22.1456C88.4809 22.6063 88.6433 23.1399 88.6532 23.7464H86.59ZM90.2404 31V20.8182H97.1012V22.593H92.3931V25.0192H96.7482V26.794H92.3931V29.2251H97.1211V31H90.2404ZM102.053 20.8182H104.708L107.512 27.6591H107.631L110.435 20.8182H113.09V31H111.002V24.3729H110.917L108.282 30.9503H106.86L104.225 24.348H104.141V31H102.053V20.8182ZM124.22 25.9091C124.22 27.0194 124.01 27.964 123.589 28.7429C123.171 29.5218 122.601 30.1167 121.878 30.5277C121.159 30.9354 120.35 31.1392 119.452 31.1392C118.547 31.1392 117.735 30.9337 117.016 30.5227C116.297 30.1117 115.729 29.5168 115.311 28.7379C114.893 27.959 114.684 27.0161 114.684 25.9091C114.684 24.7988 114.893 23.8542 115.311 23.0753C115.729 22.2964 116.297 21.7031 117.016 21.2955C117.735 20.8845 118.547 20.679 119.452 20.679C120.35 20.679 121.159 20.8845 121.878 21.2955C122.601 21.7031 123.171 22.2964 123.589 23.0753C124.01 23.8542 124.22 24.7988 124.22 25.9091ZM122.037 25.9091C122.037 25.1899 121.93 24.5833 121.714 24.0895C121.502 23.5956 121.202 23.2211 120.814 22.9659C120.427 22.7107 119.973 22.5831 119.452 22.5831C118.932 22.5831 118.478 22.7107 118.09 22.9659C117.702 23.2211 117.401 23.5956 117.185 24.0895C116.973 24.5833 116.867 25.1899 116.867 25.9091C116.867 26.6283 116.973 27.2348 117.185 27.7287C117.401 28.2225 117.702 28.5971 118.09 28.8523C118.478 29.1075 118.932 29.2351 119.452 29.2351C119.973 29.2351 120.427 29.1075 120.814 28.8523C121.202 28.5971 121.502 28.2225 121.714 27.7287C121.93 27.2348 122.037 26.6283 122.037 25.9091ZM129.424 31H125.815V20.8182H129.454C130.478 20.8182 131.36 21.022 132.099 21.4297C132.838 21.834 133.406 22.4157 133.804 23.1747C134.205 23.9337 134.406 24.8419 134.406 25.8991C134.406 26.9598 134.205 27.8712 133.804 28.6335C133.406 29.3958 132.835 29.9808 132.089 30.3885C131.346 30.7962 130.458 31 129.424 31ZM127.967 29.1555H129.335C129.971 29.1555 130.506 29.0429 130.94 28.8175C131.378 28.5888 131.706 28.2358 131.925 27.7585C132.147 27.2779 132.258 26.6581 132.258 25.8991C132.258 25.1468 132.147 24.532 131.925 24.0547C131.706 23.5774 131.379 23.2261 130.945 23.0007C130.511 22.7753 129.976 22.6626 129.339 22.6626H127.967V29.1555ZM142.289 20.8182H144.442V27.4304C144.442 28.1728 144.265 28.8224 143.91 29.3793C143.559 29.9361 143.066 30.3703 142.433 30.6818C141.8 30.9901 141.063 31.1442 140.221 31.1442C139.376 31.1442 138.637 30.9901 138.004 30.6818C137.371 30.3703 136.878 29.9361 136.527 29.3793C136.176 28.8224 136 28.1728 136 27.4304V20.8182H138.153V27.2464C138.153 27.6342 138.237 27.9789 138.406 28.2805C138.579 28.5821 138.821 28.8191 139.132 28.9915C139.444 29.1638 139.807 29.25 140.221 29.25C140.639 29.25 141.002 29.1638 141.31 28.9915C141.621 28.8191 141.862 28.5821 142.031 28.2805C142.203 27.9789 142.289 27.6342 142.289 27.2464V20.8182ZM146.213 31V20.8182H148.366V29.2251H152.731V31H146.213ZM154.156 31V20.8182H161.017V22.593H156.309V25.0192H160.664V26.794H156.309V29.2251H161.037V31H154.156Z" fill="white"/>
<defs>
<filter id="filter0_d_101_5" x="0" y="0" width="222" height="65" filterUnits="userSpaceOnUse" color-interpolation-filters="sRGB">
<feFlood flood-opacity="0" result="BackgroundImageFix"/>
<feColorMatrix in="SourceAlpha" type="matrix" values="0 0 0 0 0 0 0 0 0 0 0 0 0 0 0 0 0 0 127 0" result="hardAlpha"/>
<feOffset dx="4" dy="4"/>
<feGaussianBlur stdDeviation="2"/>
<feComposite in2="hardAlpha" operator="out"/>
<feColorMatrix type="matrix" values="0 0 0 0 0 0 0 0 0 0 0 0 0 0 0 0 0 0 0.25 0"/>
<feBlend mode="normal" in2="BackgroundImageFix" result="effect1_dropShadow_101_5"/>
<feBlend mode="normal" in="SourceGraphic" in2="effect1_dropShadow_101_5" result="shape"/>
</filter>
</defs>
</svg>
