<svg width="235" height="106" viewBox="0 0 235 106" fill="none" xmlns="http://www.w3.org/2000/svg">
<g filter="url(#filter0_d_200_51)">
<rect width="227" height="98" fill="#3C59F0"/>
</g>
<path d="M35.3523 58H26.8764V31.8182H35.6207C38.1861 31.8182 40.3892 32.3423 42.2301 33.3906C44.071 34.4304 45.4815 35.9261 46.4616 37.8778C47.4503 39.821 47.9446 42.152 47.9446 44.8707C47.9446 47.598 47.446 49.9418 46.4489 51.902C45.4602 53.8622 44.0284 55.3707 42.1534 56.4276C40.2784 57.4759 38.0114 58 35.3523 58ZM30.8267 54.5483H35.1349C37.1293 54.5483 38.7869 54.1733 40.108 53.4233C41.429 52.6648 42.4176 51.5696 43.0739 50.1378C43.7301 48.6974 44.0582 46.9418 44.0582 44.8707C44.0582 42.8168 43.7301 41.0739 43.0739 39.642C42.4261 38.2102 41.4588 37.1236 40.1719 36.3821C38.8849 35.6406 37.2869 35.2699 35.3778 35.2699H30.8267V54.5483ZM58.2646 58.4347C57.0202 58.4347 55.8952 58.2045 54.8896 57.7443C53.8839 57.2756 53.087 56.598 52.4989 55.7116C51.9194 54.8253 51.6296 53.7386 51.6296 52.4517C51.6296 51.3437 51.8427 50.4318 52.2688 49.7159C52.695 49 53.2702 48.4332 53.9947 48.0156C54.7191 47.598 55.5288 47.2827 56.4237 47.0696C57.3185 46.8565 58.2305 46.6946 59.1594 46.5838C60.3356 46.4474 61.2901 46.3366 62.0231 46.2514C62.756 46.1577 63.2887 46.0085 63.6211 45.804C63.9535 45.5994 64.1197 45.267 64.1197 44.8068V44.7173C64.1197 43.6009 63.8043 42.7358 63.1737 42.1222C62.5515 41.5085 61.6225 41.2017 60.3867 41.2017C59.0998 41.2017 58.0856 41.4872 57.3441 42.0582C56.6112 42.6207 56.104 43.2472 55.8228 43.9375L52.2305 43.1193C52.6566 41.9261 53.2788 40.9631 54.0969 40.2301C54.9237 39.4886 55.8739 38.9517 56.9478 38.6193C58.0217 38.2784 59.1509 38.108 60.3356 38.108C61.1197 38.108 61.9506 38.2017 62.8285 38.3892C63.7148 38.5682 64.5415 38.9006 65.3086 39.3864C66.0842 39.8722 66.7191 40.5668 67.2134 41.4702C67.7077 42.3651 67.9549 43.5284 67.9549 44.9602V58H64.2219V55.3153H64.0685C63.8214 55.8097 63.4506 56.2955 62.9563 56.7727C62.462 57.25 61.8271 57.6463 61.0515 57.9616C60.2759 58.277 59.3469 58.4347 58.2646 58.4347ZM59.0955 55.3665C60.1523 55.3665 61.0558 55.1577 61.8058 54.7401C62.5643 54.3224 63.1396 53.777 63.5316 53.1037C63.9322 52.4219 64.1325 51.6932 64.1325 50.9176V48.3864C63.9961 48.5227 63.7319 48.6506 63.3398 48.7699C62.9563 48.8807 62.5174 48.9787 62.0231 49.0639C61.5288 49.1406 61.0472 49.2131 60.5785 49.2812C60.1097 49.3409 59.7177 49.392 59.4023 49.4347C58.6609 49.5284 57.9833 49.6861 57.3697 49.9077C56.7646 50.1293 56.2788 50.4489 55.9123 50.8665C55.5543 51.2756 55.3754 51.821 55.3754 52.5028C55.3754 53.4489 55.7248 54.1648 56.4237 54.6506C57.1225 55.1278 58.0131 55.3665 59.0955 55.3665ZM87.7607 43.1577L84.2962 43.7713C84.1513 43.3281 83.9212 42.9062 83.6058 42.5057C83.299 42.1051 82.8814 41.777 82.353 41.5213C81.8246 41.2656 81.1641 41.1378 80.3714 41.1378C79.2891 41.1378 78.3857 41.3807 77.6612 41.8665C76.9368 42.3437 76.5746 42.9616 76.5746 43.7202C76.5746 44.3764 76.8175 44.9048 77.3033 45.3054C77.7891 45.706 78.5732 46.0341 79.6555 46.2898L82.7749 47.0057C84.5817 47.4233 85.9283 48.0668 86.8146 48.9361C87.701 49.8054 88.1442 50.9347 88.1442 52.3239C88.1442 53.5 87.8033 54.5483 87.1214 55.4688C86.4482 56.3807 85.5064 57.0966 84.2962 57.6165C83.0945 58.1364 81.701 58.3963 80.1158 58.3963C77.9169 58.3963 76.1229 57.9276 74.7337 56.9901C73.3445 56.044 72.4922 54.7017 72.1768 52.9631L75.8714 52.4006C76.1016 53.3636 76.5746 54.0923 77.2905 54.5866C78.0064 55.0724 78.9396 55.3153 80.0902 55.3153C81.343 55.3153 82.3445 55.0554 83.0945 54.5355C83.8445 54.0071 84.2195 53.3636 84.2195 52.6051C84.2195 51.9915 83.9893 51.4759 83.5291 51.0582C83.0774 50.6406 82.3828 50.3253 81.4453 50.1122L78.1214 49.3835C76.2891 48.9659 74.9339 48.3011 74.0561 47.3892C73.1868 46.4773 72.7521 45.3224 72.7521 43.9247C72.7521 42.7656 73.076 41.7514 73.7237 40.8821C74.3714 40.0128 75.2663 39.3352 76.4084 38.8494C77.5504 38.3551 78.8587 38.108 80.3331 38.108C82.4553 38.108 84.1257 38.5682 85.3445 39.4886C86.5632 40.4006 87.3686 41.6236 87.7607 43.1577ZM96.1694 46.3409V58H92.3469V31.8182H96.1183V41.5597H96.3612C96.8214 40.5028 97.5245 39.6634 98.4705 39.0412C99.4165 38.419 100.652 38.108 102.178 38.108C103.525 38.108 104.701 38.3849 105.706 38.9389C106.721 39.4929 107.505 40.3196 108.059 41.419C108.621 42.5099 108.902 43.8736 108.902 45.5099V58H105.08V45.9702C105.08 44.5298 104.709 43.4134 103.968 42.6207C103.226 41.8196 102.195 41.419 100.874 41.419C99.9705 41.419 99.1609 41.6108 98.445 41.9943C97.7376 42.3778 97.1793 42.9403 96.7702 43.6818C96.3697 44.4148 96.1694 45.3011 96.1694 46.3409ZM114.31 58V31.8182H118.132V41.5469H118.363C118.584 41.1378 118.904 40.6648 119.321 40.1278C119.739 39.5909 120.319 39.1222 121.06 38.7216C121.801 38.3125 122.782 38.108 124 38.108C125.586 38.108 127 38.5085 128.245 39.3097C129.489 40.1108 130.465 41.2656 131.172 42.7741C131.888 44.2827 132.246 46.098 132.246 48.2202C132.246 50.3423 131.892 52.1619 131.185 53.679C130.478 55.1875 129.506 56.3509 128.27 57.169C127.034 57.9787 125.624 58.3835 124.039 58.3835C122.846 58.3835 121.87 58.1832 121.111 57.7827C120.361 57.3821 119.773 56.9134 119.347 56.3764C118.921 55.8395 118.593 55.3622 118.363 54.9446H118.043V58H114.31ZM118.056 48.1818C118.056 49.5625 118.256 50.7727 118.657 51.8125C119.057 52.8523 119.637 53.6662 120.395 54.2543C121.154 54.8338 122.083 55.1236 123.182 55.1236C124.324 55.1236 125.279 54.821 126.046 54.2159C126.813 53.6023 127.392 52.7713 127.784 51.723C128.185 50.6747 128.385 49.4943 128.385 48.1818C128.385 46.8864 128.189 45.723 127.797 44.6918C127.414 43.6605 126.834 42.8466 126.059 42.25C125.292 41.6534 124.333 41.3551 123.182 41.3551C122.074 41.3551 121.137 41.6406 120.37 42.2116C119.611 42.7827 119.036 43.5795 118.644 44.6023C118.252 45.625 118.056 46.8182 118.056 48.1818ZM144.81 58.3963C142.969 58.3963 141.362 57.9744 139.99 57.1307C138.618 56.2869 137.553 55.1065 136.794 53.5895C136.036 52.0724 135.656 50.2997 135.656 48.2713C135.656 46.2344 136.036 44.4531 136.794 42.9276C137.553 41.402 138.618 40.2173 139.99 39.3736C141.362 38.5298 142.969 38.108 144.81 38.108C146.651 38.108 148.257 38.5298 149.629 39.3736C151.001 40.2173 152.067 41.402 152.825 42.9276C153.584 44.4531 153.963 46.2344 153.963 48.2713C153.963 50.2997 153.584 52.0724 152.825 53.5895C152.067 55.1065 151.001 56.2869 149.629 57.1307C148.257 57.9744 146.651 58.3963 144.81 58.3963ZM144.822 55.1875C146.016 55.1875 147.004 54.8722 147.788 54.2415C148.572 53.6108 149.152 52.7713 149.527 51.723C149.911 50.6747 150.102 49.5199 150.102 48.2585C150.102 47.0057 149.911 45.8551 149.527 44.8068C149.152 43.75 148.572 42.902 147.788 42.2628C147.004 41.6236 146.016 41.304 144.822 41.304C143.621 41.304 142.624 41.6236 141.831 42.2628C141.047 42.902 140.463 43.75 140.08 44.8068C139.705 45.8551 139.517 47.0057 139.517 48.2585C139.517 49.5199 139.705 50.6747 140.08 51.723C140.463 52.7713 141.047 53.6108 141.831 54.2415C142.624 54.8722 143.621 55.1875 144.822 55.1875ZM163.944 58.4347C162.7 58.4347 161.575 58.2045 160.569 57.7443C159.564 57.2756 158.767 56.598 158.179 55.7116C157.599 54.8253 157.309 53.7386 157.309 52.4517C157.309 51.3437 157.522 50.4318 157.949 49.7159C158.375 49 158.95 48.4332 159.674 48.0156C160.399 47.598 161.208 47.2827 162.103 47.0696C162.998 46.8565 163.91 46.6946 164.839 46.5838C166.015 46.4474 166.97 46.3366 167.703 46.2514C168.436 46.1577 168.968 46.0085 169.301 45.804C169.633 45.5994 169.799 45.267 169.799 44.8068V44.7173C169.799 43.6009 169.484 42.7358 168.853 42.1222C168.231 41.5085 167.302 41.2017 166.066 41.2017C164.779 41.2017 163.765 41.4872 163.024 42.0582C162.291 42.6207 161.784 43.2472 161.502 43.9375L157.91 43.1193C158.336 41.9261 158.958 40.9631 159.777 40.2301C160.603 39.4886 161.554 38.9517 162.627 38.6193C163.701 38.2784 164.831 38.108 166.015 38.108C166.799 38.108 167.63 38.2017 168.508 38.3892C169.395 38.5682 170.221 38.9006 170.988 39.3864C171.764 39.8722 172.399 40.5668 172.893 41.4702C173.387 42.3651 173.635 43.5284 173.635 44.9602V58H169.902V55.3153H169.748C169.501 55.8097 169.13 56.2955 168.636 56.7727C168.142 57.25 167.507 57.6463 166.731 57.9616C165.956 58.277 165.027 58.4347 163.944 58.4347ZM164.775 55.3665C165.832 55.3665 166.735 55.1577 167.485 54.7401C168.244 54.3224 168.819 53.777 169.211 53.1037C169.612 52.4219 169.812 51.6932 169.812 50.9176V48.3864C169.676 48.5227 169.412 48.6506 169.02 48.7699C168.636 48.8807 168.197 48.9787 167.703 49.0639C167.208 49.1406 166.727 49.2131 166.258 49.2812C165.789 49.3409 165.397 49.392 165.082 49.4347C164.341 49.5284 163.663 49.6861 163.049 49.9077C162.444 50.1293 161.958 50.4489 161.592 50.8665C161.234 51.2756 161.055 51.821 161.055 52.5028C161.055 53.4489 161.404 54.1648 162.103 54.6506C162.802 55.1278 163.693 55.3665 164.775 55.3665ZM178.726 58V38.3636H182.42V41.483H182.625C182.983 40.4261 183.614 39.5952 184.517 38.9901C185.429 38.3764 186.46 38.0696 187.611 38.0696C187.849 38.0696 188.131 38.0781 188.455 38.0952C188.787 38.1122 189.047 38.1335 189.234 38.1591V41.8153C189.081 41.7727 188.808 41.7259 188.416 41.6747C188.024 41.6151 187.632 41.5852 187.24 41.5852C186.337 41.5852 185.531 41.777 184.824 42.1605C184.125 42.5355 183.571 43.0597 183.162 43.733C182.753 44.3977 182.548 45.1562 182.548 46.0085V58H178.726ZM199.19 58.3835C197.605 58.3835 196.19 57.9787 194.946 57.169C193.71 56.3509 192.738 55.1875 192.031 53.679C191.332 52.1619 190.983 50.3423 190.983 48.2202C190.983 46.098 191.336 44.2827 192.044 42.7741C192.76 41.2656 193.74 40.1108 194.984 39.3097C196.228 38.5085 197.639 38.108 199.216 38.108C200.434 38.108 201.414 38.3125 202.156 38.7216C202.906 39.1222 203.485 39.5909 203.895 40.1278C204.312 40.6648 204.636 41.1378 204.866 41.5469H205.096V31.8182H208.919V58H205.186V54.9446H204.866C204.636 55.3622 204.304 55.8395 203.869 56.3764C203.443 56.9134 202.855 57.3821 202.105 57.7827C201.355 58.1832 200.383 58.3835 199.19 58.3835ZM200.034 55.1236C201.133 55.1236 202.062 54.8338 202.821 54.2543C203.588 53.6662 204.167 52.8523 204.559 51.8125C204.96 50.7727 205.16 49.5625 205.16 48.1818C205.16 46.8182 204.964 45.625 204.572 44.6023C204.18 43.5795 203.605 42.7827 202.846 42.2116C202.088 41.6406 201.15 41.3551 200.034 41.3551C198.883 41.3551 197.924 41.6534 197.157 42.25C196.39 42.8466 195.811 43.6605 195.419 44.6918C195.035 45.723 194.843 46.8864 194.843 48.1818C194.843 49.4943 195.039 50.6747 195.431 51.723C195.824 52.7713 196.403 53.6023 197.17 54.2159C197.946 54.821 198.9 55.1236 200.034 55.1236Z" fill="#100F0F"/>
<defs>
<filter id="filter0_d_200_51" x="0" y="0" width="235" height="106" filterUnits="userSpaceOnUse" color-interpolation-filters="sRGB">
<feFlood flood-opacity="0" result="BackgroundImageFix"/>
<feColorMatrix in="SourceAlpha" type="matrix" values="0 0 0 0 0 0 0 0 0 0 0 0 0 0 0 0 0 0 127 0" result="hardAlpha"/>
<feOffset dx="4" dy="4"/>
<feGaussianBlur stdDeviation="2"/>
<feComposite in2="hardAlpha" operator="out"/>
<feColorMatrix type="matrix" values="0 0 0 0 0 0 0 0 0 0 0 0 0 0 0 0 0 0 0.25 0"/>
<feBlend mode="normal" in2="BackgroundImageFix" result="effect1_dropShadow_200_51"/>
<feBlend mode="normal" in="SourceGraphic" in2="effect1_dropShadow_200_51" result="shape"/>
</filter>
</defs>
</svg>
