<svg width="180" height="87" viewBox="0 0 180 87" fill="none" xmlns="http://www.w3.org/2000/svg">
<g filter="url(#filter0_d_200_58)">
<rect y="-19" width="172" height="98" fill="#3C59F0"/>
</g>
<path d="M2.87642 12.8182H7.67045L16.0057 33.1705H16.3125L24.6477 12.8182H29.4418V39H25.6832V20.054H25.4403L17.7188 38.9616H14.5994L6.87784 20.0412H6.63494V39H2.87642V12.8182ZM37.2944 46.3636C36.7234 46.3636 36.2035 46.3168 35.7347 46.223C35.266 46.1378 34.9165 46.044 34.6864 45.9418L35.6069 42.8097C36.3058 42.9972 36.9279 43.0781 37.4734 43.0526C38.0188 43.027 38.5004 42.8224 38.918 42.4389C39.3441 42.0554 39.7191 41.429 40.043 40.5597L40.516 39.2557L33.3313 19.3636H37.4222L42.3952 34.6023H42.5998L47.5728 19.3636H51.6765L43.5842 41.6207C43.2092 42.6435 42.7319 43.5085 42.1523 44.2159C41.5728 44.9318 40.8825 45.4688 40.0813 45.8267C39.2802 46.1847 38.3512 46.3636 37.2944 46.3636ZM70.2294 39L62.968 12.8182H67.1229L72.2237 33.0938H72.4666L77.772 12.8182H81.8885L87.1939 33.1065H87.4368L92.5249 12.8182H96.6925L89.4183 39H85.4425L79.9325 19.3892H79.728L74.218 39H70.2294ZM106.325 39.3963C104.484 39.3963 102.878 38.9744 101.506 38.1307C100.134 37.2869 99.0682 36.1065 98.3097 34.5895C97.5511 33.0724 97.1719 31.2997 97.1719 29.2713C97.1719 27.2344 97.5511 25.4531 98.3097 23.9276C99.0682 22.402 100.134 21.2173 101.506 20.3736C102.878 19.5298 104.484 19.108 106.325 19.108C108.166 19.108 109.773 19.5298 111.145 20.3736C112.517 21.2173 113.582 22.402 114.341 23.9276C115.099 25.4531 115.479 27.2344 115.479 29.2713C115.479 31.2997 115.099 33.0724 114.341 34.5895C113.582 36.1065 112.517 37.2869 111.145 38.1307C109.773 38.9744 108.166 39.3963 106.325 39.3963ZM106.338 36.1875C107.531 36.1875 108.52 35.8722 109.304 35.2415C110.088 34.6108 110.668 33.7713 111.043 32.723C111.426 31.6747 111.618 30.5199 111.618 29.2585C111.618 28.0057 111.426 26.8551 111.043 25.8068C110.668 24.75 110.088 23.902 109.304 23.2628C108.52 22.6236 107.531 22.304 106.338 22.304C105.136 22.304 104.139 22.6236 103.347 23.2628C102.563 23.902 101.979 24.75 101.595 25.8068C101.22 26.8551 101.033 28.0057 101.033 29.2585C101.033 30.5199 101.22 31.6747 101.595 32.723C101.979 33.7713 102.563 34.6108 103.347 35.2415C104.139 35.8722 105.136 36.1875 106.338 36.1875ZM119.745 39V19.3636H123.44V22.483H123.645C124.002 21.4261 124.633 20.5952 125.537 19.9901C126.449 19.3764 127.48 19.0696 128.63 19.0696C128.869 19.0696 129.15 19.0781 129.474 19.0952C129.806 19.1122 130.066 19.1335 130.254 19.1591V22.8153C130.1 22.7727 129.828 22.7259 129.436 22.6747C129.044 22.6151 128.652 22.5852 128.26 22.5852C127.356 22.5852 126.551 22.777 125.843 23.1605C125.145 23.5355 124.591 24.0597 124.181 24.733C123.772 25.3977 123.568 26.1562 123.568 27.0085V39H119.745ZM137.077 32.3395L137.052 27.6733H137.717L145.54 19.3636H150.117L141.194 28.8239H140.593L137.077 32.3395ZM133.562 39V12.8182H137.384V39H133.562ZM145.962 39L138.931 29.6676L141.565 26.9957L150.654 39H145.962ZM168.315 24.1577L164.851 24.7713C164.706 24.3281 164.476 23.9062 164.161 23.5057C163.854 23.1051 163.436 22.777 162.908 22.5213C162.379 22.2656 161.719 22.1378 160.926 22.1378C159.844 22.1378 158.94 22.3807 158.216 22.8665C157.491 23.3437 157.129 23.9616 157.129 24.7202C157.129 25.3764 157.372 25.9048 157.858 26.3054C158.344 26.706 159.128 27.0341 160.21 27.2898L163.33 28.0057C165.136 28.4233 166.483 29.0668 167.369 29.9361C168.256 30.8054 168.699 31.9347 168.699 33.3239C168.699 34.5 168.358 35.5483 167.676 36.4688C167.003 37.3807 166.061 38.0966 164.851 38.6165C163.649 39.1364 162.256 39.3963 160.67 39.3963C158.472 39.3963 156.678 38.9276 155.288 37.9901C153.899 37.044 153.047 35.7017 152.732 33.9631L156.426 33.4006C156.656 34.3636 157.129 35.0923 157.845 35.5866C158.561 36.0724 159.494 36.3153 160.645 36.3153C161.898 36.3153 162.899 36.0554 163.649 35.5355C164.399 35.0071 164.774 34.3636 164.774 33.6051C164.774 32.9915 164.544 32.4759 164.084 32.0582C163.632 31.6406 162.938 31.3253 162 31.1122L158.676 30.3835C156.844 29.9659 155.489 29.3011 154.611 28.3892C153.741 27.4773 153.307 26.3224 153.307 24.9247C153.307 23.7656 153.631 22.7514 154.278 21.8821C154.926 21.0128 155.821 20.3352 156.963 19.8494C158.105 19.3551 159.413 19.108 160.888 19.108C163.01 19.108 164.68 19.5682 165.899 20.4886C167.118 21.4006 167.923 22.6236 168.315 24.1577Z" fill="#FFADAD"/>
<defs>
<filter id="filter0_d_200_58" x="0" y="-19" width="180" height="106" filterUnits="userSpaceOnUse" color-interpolation-filters="sRGB">
<feFlood flood-opacity="0" result="BackgroundImageFix"/>
<feColorMatrix in="SourceAlpha" type="matrix" values="0 0 0 0 0 0 0 0 0 0 0 0 0 0 0 0 0 0 127 0" result="hardAlpha"/>
<feOffset dx="4" dy="4"/>
<feGaussianBlur stdDeviation="2"/>
<feComposite in2="hardAlpha" operator="out"/>
<feColorMatrix type="matrix" values="0 0 0 0 0 0 0 0 0 0 0 0 0 0 0 0 0 0 0.25 0"/>
<feBlend mode="normal" in2="BackgroundImageFix" result="effect1_dropShadow_200_58"/>
<feBlend mode="normal" in="SourceGraphic" in2="effect1_dropShadow_200_58" result="shape"/>
</filter>
</defs>
</svg>
