<svg width="226" height="65" viewBox="0 0 226 65" fill="none" xmlns="http://www.w3.org/2000/svg">
<g filter="url(#filter0_d_161_4)">
<g filter="url(#filter1_d_161_4)">
<rect x="4" width="214" height="57" rx="4" fill="#2164C9"/>
</g>
<path d="M69.8849 33V22.8182H73.902C74.6742 22.8182 75.3321 22.9657 75.8757 23.2607C76.4193 23.5523 76.8336 23.9583 77.1186 24.4787C77.407 24.9957 77.5511 25.5923 77.5511 26.2685C77.5511 26.9446 77.4053 27.5412 77.1136 28.0582C76.822 28.5753 76.3994 28.978 75.8459 29.2663C75.2957 29.5547 74.6295 29.6989 73.8473 29.6989H71.2869V27.9737H73.4993C73.9136 27.9737 74.255 27.9025 74.5234 27.7599C74.7952 27.6141 74.9974 27.4136 75.13 27.1584C75.2659 26.8999 75.3338 26.6032 75.3338 26.2685C75.3338 25.9304 75.2659 25.6354 75.13 25.3835C74.9974 25.1283 74.7952 24.9311 74.5234 24.7919C74.2517 24.6494 73.907 24.5781 73.4893 24.5781H72.0376V33H69.8849ZM78.9494 33V22.8182H82.9664C83.7354 22.8182 84.3916 22.9557 84.9352 23.2308C85.4821 23.5026 85.898 23.8887 86.1831 24.3892C86.4714 24.8864 86.6156 25.4714 86.6156 26.1442C86.6156 26.8203 86.4698 27.402 86.1781 27.8892C85.8864 28.3731 85.4638 28.7443 84.9103 29.0028C84.3601 29.2614 83.694 29.3906 82.9118 29.3906H80.2221V27.6605H82.5637C82.9747 27.6605 83.3161 27.6042 83.5879 27.4915C83.8597 27.3788 84.0618 27.2098 84.1944 26.9844C84.3303 26.759 84.3983 26.4789 84.3983 26.1442C84.3983 25.8061 84.3303 25.5211 84.1944 25.2891C84.0618 25.0571 83.858 24.8814 83.5829 24.7621C83.3111 24.6394 82.9681 24.5781 82.5538 24.5781H81.1021V33H78.9494ZM84.448 28.3665L86.9785 33H84.6021L82.1262 28.3665H84.448ZM97.4934 27.9091C97.4934 29.0194 97.283 29.964 96.862 30.7429C96.4444 31.5218 95.8743 32.1167 95.1518 32.5277C94.4326 32.9354 93.6239 33.1392 92.7257 33.1392C91.8208 33.1392 91.0088 32.9337 90.2896 32.5227C89.5704 32.1117 89.002 31.5168 88.5843 30.7379C88.1667 29.959 87.9579 29.0161 87.9579 27.9091C87.9579 26.7988 88.1667 25.8542 88.5843 25.0753C89.002 24.2964 89.5704 23.7031 90.2896 23.2955C91.0088 22.8845 91.8208 22.679 92.7257 22.679C93.6239 22.679 94.4326 22.8845 95.1518 23.2955C95.8743 23.7031 96.4444 24.2964 96.862 25.0753C97.283 25.8542 97.4934 26.7988 97.4934 27.9091ZM95.3109 27.9091C95.3109 27.1899 95.2032 26.5833 94.9877 26.0895C94.7756 25.5956 94.4757 25.2211 94.0879 24.9659C93.7001 24.7107 93.246 24.5831 92.7257 24.5831C92.2053 24.5831 91.7512 24.7107 91.3635 24.9659C90.9757 25.2211 90.6741 25.5956 90.4586 26.0895C90.2465 26.5833 90.1404 27.1899 90.1404 27.9091C90.1404 28.6283 90.2465 29.2348 90.4586 29.7287C90.6741 30.2225 90.9757 30.5971 91.3635 30.8523C91.7512 31.1075 92.2053 31.2351 92.7257 31.2351C93.246 31.2351 93.7001 31.1075 94.0879 30.8523C94.4757 30.5971 94.7756 30.2225 94.9877 29.7287C95.2032 29.2348 95.3109 28.6283 95.3109 27.9091ZM105.839 26.1094C105.77 25.8674 105.672 25.6536 105.546 25.468C105.42 25.2791 105.266 25.12 105.084 24.9908C104.905 24.8582 104.699 24.7571 104.467 24.6875C104.239 24.6179 103.985 24.5831 103.707 24.5831C103.186 24.5831 102.729 24.7124 102.335 24.9709C101.943 25.2294 101.638 25.6056 101.42 26.0994C101.201 26.59 101.092 27.1899 101.092 27.8991C101.092 28.6084 101.199 29.2116 101.415 29.7088C101.63 30.206 101.935 30.5855 102.33 30.8473C102.724 31.1058 103.19 31.2351 103.727 31.2351C104.214 31.2351 104.63 31.1489 104.974 30.9766C105.322 30.8009 105.588 30.554 105.77 30.2358C105.955 29.9176 106.048 29.5414 106.048 29.1072L106.486 29.1719H103.861V27.5511H108.121V28.8338C108.121 29.7287 107.933 30.4976 107.555 31.1406C107.177 31.7803 106.656 32.2741 105.994 32.6222C105.331 32.9669 104.572 33.1392 103.717 33.1392C102.762 33.1392 101.924 32.9287 101.201 32.5078C100.478 32.0836 99.915 31.482 99.5107 30.7031C99.1096 29.9209 98.9091 28.9929 98.9091 27.919C98.9091 27.0937 99.0284 26.358 99.267 25.7116C99.509 25.062 99.8471 24.5118 100.281 24.0611C100.715 23.6103 101.221 23.2673 101.798 23.032C102.374 22.7966 102.999 22.679 103.672 22.679C104.249 22.679 104.786 22.7635 105.283 22.9325C105.78 23.0982 106.221 23.3336 106.605 23.6385C106.993 23.9434 107.309 24.3063 107.555 24.7273C107.8 25.1449 107.957 25.6056 108.027 26.1094H105.839ZM109.738 33V22.8182H113.756C114.524 22.8182 115.181 22.9557 115.724 23.2308C116.271 23.5026 116.687 23.8887 116.972 24.3892C117.26 24.8864 117.405 25.4714 117.405 26.1442C117.405 26.8203 117.259 27.402 116.967 27.8892C116.675 28.3731 116.253 28.7443 115.699 29.0028C115.149 29.2614 114.483 29.3906 113.701 29.3906H111.011V27.6605H113.353C113.764 27.6605 114.105 27.6042 114.377 27.4915C114.649 27.3788 114.851 27.2098 114.983 26.9844C115.119 26.759 115.187 26.4789 115.187 26.1442C115.187 25.8061 115.119 25.5211 114.983 25.2891C114.851 25.0571 114.647 24.8814 114.372 24.7621C114.1 24.6394 113.757 24.5781 113.343 24.5781H111.891V33H109.738ZM115.237 28.3665L117.768 33H115.391L112.915 28.3665H115.237ZM118.926 33V22.8182H125.787V24.593H121.079V27.0192H125.434V28.794H121.079V31.2251H125.807V33H118.926ZM133.022 25.7464C132.982 25.3454 132.811 25.0339 132.51 24.8118C132.208 24.5897 131.799 24.4787 131.282 24.4787C130.93 24.4787 130.634 24.5284 130.392 24.6278C130.15 24.724 129.964 24.8582 129.835 25.0305C129.709 25.2029 129.646 25.3984 129.646 25.6172C129.639 25.7995 129.677 25.9586 129.76 26.0945C129.846 26.2304 129.964 26.348 130.113 26.4474C130.262 26.5436 130.435 26.6281 130.63 26.701C130.826 26.7706 131.035 26.8303 131.257 26.88L132.172 27.0987C132.616 27.1982 133.023 27.3307 133.395 27.4964C133.766 27.6622 134.087 27.866 134.359 28.108C134.631 28.3499 134.841 28.6349 134.99 28.9631C135.143 29.2912 135.221 29.6674 135.224 30.0916C135.221 30.7147 135.062 31.255 134.747 31.7124C134.435 32.1664 133.984 32.5194 133.395 32.7713C132.808 33.0199 132.1 33.1442 131.272 33.1442C130.45 33.1442 129.734 33.0182 129.124 32.7663C128.517 32.5144 128.043 32.1416 127.702 31.6477C127.364 31.1506 127.187 30.5357 127.17 29.8033H129.253C129.276 30.1446 129.374 30.4297 129.547 30.6584C129.722 30.8838 129.956 31.0545 130.248 31.1705C130.542 31.2831 130.876 31.3395 131.247 31.3395C131.611 31.3395 131.928 31.2865 132.196 31.1804C132.468 31.0743 132.679 30.9268 132.828 30.7379C132.977 30.549 133.051 30.3319 133.051 30.0866C133.051 29.858 132.984 29.6657 132.848 29.5099C132.715 29.3542 132.52 29.2216 132.261 29.1122C132.006 29.0028 131.693 28.9034 131.321 28.8139L130.213 28.5355C129.354 28.3267 128.676 28.0002 128.179 27.5561C127.682 27.112 127.435 26.5137 127.439 25.7614C127.435 25.1449 127.599 24.6063 127.931 24.1456C128.266 23.6849 128.725 23.3253 129.308 23.0668C129.891 22.8082 130.554 22.679 131.297 22.679C132.052 22.679 132.712 22.8082 133.275 23.0668C133.842 23.3253 134.283 23.6849 134.598 24.1456C134.913 24.6063 135.075 25.1399 135.085 25.7464H133.022ZM142.195 25.7464C142.156 25.3454 141.985 25.0339 141.683 24.8118C141.382 24.5897 140.972 24.4787 140.455 24.4787C140.104 24.4787 139.807 24.5284 139.566 24.6278C139.324 24.724 139.138 24.8582 139.009 25.0305C138.883 25.2029 138.82 25.3984 138.82 25.6172C138.813 25.7995 138.851 25.9586 138.934 26.0945C139.02 26.2304 139.138 26.348 139.287 26.4474C139.436 26.5436 139.609 26.6281 139.804 26.701C140 26.7706 140.209 26.8303 140.431 26.88L141.345 27.0987C141.789 27.1982 142.197 27.3307 142.568 27.4964C142.94 27.6622 143.261 27.866 143.533 28.108C143.805 28.3499 144.015 28.6349 144.164 28.9631C144.317 29.2912 144.395 29.6674 144.398 30.0916C144.395 30.7147 144.236 31.255 143.921 31.7124C143.609 32.1664 143.158 32.5194 142.568 32.7713C141.982 33.0199 141.274 33.1442 140.445 33.1442C139.624 33.1442 138.908 33.0182 138.298 32.7663C137.691 32.5144 137.217 32.1416 136.876 31.6477C136.538 31.1506 136.36 30.5357 136.344 29.8033H138.427C138.45 30.1446 138.548 30.4297 138.72 30.6584C138.896 30.8838 139.13 31.0545 139.421 31.1705C139.716 31.2831 140.049 31.3395 140.421 31.3395C140.785 31.3395 141.102 31.2865 141.37 31.1804C141.642 31.0743 141.852 30.9268 142.002 30.7379C142.151 30.549 142.225 30.3319 142.225 30.0866C142.225 29.858 142.157 29.6657 142.021 29.5099C141.889 29.3542 141.693 29.2216 141.435 29.1122C141.18 29.0028 140.866 28.9034 140.495 28.8139L139.387 28.5355C138.528 28.3267 137.85 28.0002 137.353 27.5561C136.856 27.112 136.609 26.5137 136.612 25.7614C136.609 25.1449 136.773 24.6063 137.105 24.1456C137.439 23.6849 137.898 23.3253 138.482 23.0668C139.065 22.8082 139.728 22.679 140.47 22.679C141.226 22.679 141.886 22.8082 142.449 23.0668C143.016 23.3253 143.457 23.6849 143.771 24.1456C144.086 24.6063 144.249 25.1399 144.259 25.7464H142.195Z" fill="white"/>
</g>
<defs>
<filter id="filter0_d_161_4" x="0" y="0" width="222" height="65" filterUnits="userSpaceOnUse" color-interpolation-filters="sRGB">
<feFlood flood-opacity="0" result="BackgroundImageFix"/>
<feColorMatrix in="SourceAlpha" type="matrix" values="0 0 0 0 0 0 0 0 0 0 0 0 0 0 0 0 0 0 127 0" result="hardAlpha"/>
<feOffset dy="4"/>
<feGaussianBlur stdDeviation="2"/>
<feComposite in2="hardAlpha" operator="out"/>
<feColorMatrix type="matrix" values="0 0 0 0 0 0 0 0 0 0 0 0 0 0 0 0 0 0 0.25 0"/>
<feBlend mode="normal" in2="BackgroundImageFix" result="effect1_dropShadow_161_4"/>
<feBlend mode="normal" in="SourceGraphic" in2="effect1_dropShadow_161_4" result="shape"/>
</filter>
<filter id="filter1_d_161_4" x="4" y="0" width="222" height="65" filterUnits="userSpaceOnUse" color-interpolation-filters="sRGB">
<feFlood flood-opacity="0" result="BackgroundImageFix"/>
<feColorMatrix in="SourceAlpha" type="matrix" values="0 0 0 0 0 0 0 0 0 0 0 0 0 0 0 0 0 0 127 0" result="hardAlpha"/>
<feOffset dx="4" dy="4"/>
<feGaussianBlur stdDeviation="2"/>
<feComposite in2="hardAlpha" operator="out"/>
<feColorMatrix type="matrix" values="0 0 0 0 0 0 0 0 0 0 0 0 0 0 0 0 0 0 0.25 0"/>
<feBlend mode="normal" in2="BackgroundImageFix" result="effect1_dropShadow_161_4"/>
<feBlend mode="normal" in="SourceGraphic" in2="effect1_dropShadow_161_4" result="shape"/>
</filter>
</defs>
</svg>
