<svg width="227" height="65" viewBox="0 0 227 65" fill="none" xmlns="http://www.w3.org/2000/svg">
<g filter="url(#filter0_d_149_15)">
<rect width="219" height="57" rx="4" fill="#2164C9"/>
</g>
<path d="M81.174 22.8182H83.3267V29.4304C83.3267 30.1728 83.1494 30.8224 82.7947 31.3793C82.4434 31.9361 81.9512 32.3703 81.3182 32.6818C80.6851 32.9901 79.9477 33.1442 79.1058 33.1442C78.2607 33.1442 77.5215 32.9901 76.8885 32.6818C76.2554 32.3703 75.7633 31.9361 75.4119 31.3793C75.0606 30.8224 74.8849 30.1728 74.8849 29.4304V22.8182H77.0376V29.2464C77.0376 29.6342 77.1222 29.9789 77.2912 30.2805C77.4635 30.5821 77.7055 30.8191 78.017 30.9915C78.3286 31.1638 78.6915 31.25 79.1058 31.25C79.5234 31.25 79.8864 31.1638 80.1946 30.9915C80.5062 30.8191 80.7464 30.5821 80.9155 30.2805C81.0878 29.9789 81.174 29.6342 81.174 29.2464V22.8182ZM85.0978 33V22.8182H89.1149C89.8871 22.8182 90.545 22.9657 91.0886 23.2607C91.6322 23.5523 92.0465 23.9583 92.3315 24.4787C92.6199 24.9957 92.764 25.5923 92.764 26.2685C92.764 26.9446 92.6182 27.5412 92.3265 28.0582C92.0349 28.5753 91.6123 28.978 91.0588 29.2663C90.5086 29.5547 89.8424 29.6989 89.0602 29.6989H86.4998V27.9737H88.7122C89.1265 27.9737 89.4679 27.9025 89.7363 27.7599C90.0081 27.6141 90.2103 27.4136 90.3429 27.1584C90.4788 26.8999 90.5467 26.6032 90.5467 26.2685C90.5467 25.9304 90.4788 25.6354 90.3429 25.3835C90.2103 25.1283 90.0081 24.9311 89.7363 24.7919C89.4645 24.6494 89.1199 24.5781 88.7022 24.5781H87.2505V33H85.0978ZM94.1623 33V22.8182H96.315V31.2251H100.68V33H94.1623ZM111.066 27.9091C111.066 29.0194 110.855 29.964 110.434 30.7429C110.017 31.5218 109.447 32.1167 108.724 32.5277C108.005 32.9354 107.196 33.1392 106.298 33.1392C105.393 33.1392 104.581 32.9337 103.862 32.5227C103.143 32.1117 102.574 31.5168 102.157 30.7379C101.739 29.959 101.53 29.0161 101.53 27.9091C101.53 26.7988 101.739 25.8542 102.157 25.0753C102.574 24.2964 103.143 23.7031 103.862 23.2955C104.581 22.8845 105.393 22.679 106.298 22.679C107.196 22.679 108.005 22.8845 108.724 23.2955C109.447 23.7031 110.017 24.2964 110.434 25.0753C110.855 25.8542 111.066 26.7988 111.066 27.9091ZM108.883 27.9091C108.883 27.1899 108.775 26.5833 108.56 26.0895C108.348 25.5956 108.048 25.2211 107.66 24.9659C107.272 24.7107 106.818 24.5831 106.298 24.5831C105.778 24.5831 105.324 24.7107 104.936 24.9659C104.548 25.2211 104.246 25.5956 104.031 26.0895C103.819 26.5833 103.713 27.1899 103.713 27.9091C103.713 28.6283 103.819 29.2348 104.031 29.7287C104.246 30.2225 104.548 30.5971 104.936 30.8523C105.324 31.1075 105.778 31.2351 106.298 31.2351C106.818 31.2351 107.272 31.1075 107.66 30.8523C108.048 30.5971 108.348 30.2225 108.56 29.7287C108.775 29.2348 108.883 28.6283 108.883 27.9091ZM113.841 33H111.534L115.049 22.8182H117.823L121.333 33H119.026L116.476 25.1449H116.396L113.841 33ZM113.697 28.9979H119.146V30.6783H113.697V28.9979ZM126.168 33H122.559V22.8182H126.198C127.222 22.8182 128.104 23.022 128.843 23.4297C129.582 23.834 130.15 24.4157 130.548 25.1747C130.949 25.9337 131.15 26.8419 131.15 27.8991C131.15 28.9598 130.949 29.8712 130.548 30.6335C130.15 31.3958 129.579 31.9808 128.833 32.3885C128.09 32.7962 127.202 33 126.168 33ZM124.711 31.1555H126.079C126.715 31.1555 127.25 31.0429 127.684 30.8175C128.122 30.5888 128.45 30.2358 128.669 29.7585C128.891 29.2779 129.002 28.6581 129.002 27.8991C129.002 27.1468 128.891 26.532 128.669 26.0547C128.45 25.5774 128.124 25.2261 127.689 25.0007C127.255 24.7753 126.72 24.6626 126.084 24.6626H124.711V31.1555Z" fill="#E1F3F5"/>
<defs>
<filter id="filter0_d_149_15" x="0" y="0" width="227" height="65" filterUnits="userSpaceOnUse" color-interpolation-filters="sRGB">
<feFlood flood-opacity="0" result="BackgroundImageFix"/>
<feColorMatrix in="SourceAlpha" type="matrix" values="0 0 0 0 0 0 0 0 0 0 0 0 0 0 0 0 0 0 127 0" result="hardAlpha"/>
<feOffset dx="4" dy="4"/>
<feGaussianBlur stdDeviation="2"/>
<feComposite in2="hardAlpha" operator="out"/>
<feColorMatrix type="matrix" values="0 0 0 0 0 0 0 0 0 0 0 0 0 0 0 0 0 0 0.25 0"/>
<feBlend mode="normal" in2="BackgroundImageFix" result="effect1_dropShadow_149_15"/>
<feBlend mode="normal" in="SourceGraphic" in2="effect1_dropShadow_149_15" result="shape"/>
</filter>
</defs>
</svg>
