<svg width="44" height="50" viewBox="0 0 44 50" fill="none" xmlns="http://www.w3.org/2000/svg">
<g filter="url(#filter0_d_162_6)">
<g filter="url(#filter1_d_162_6)">
<rect x="4" width="31.4232" height="42" rx="4" fill="#2164C9"/>
</g>
<path d="M12.5415 30V15.4545H18.2802C19.3834 15.4545 20.3233 15.6652 21.0998 16.0866C21.8763 16.5033 22.4682 17.0833 22.8754 17.8267C23.2873 18.5653 23.4933 19.4176 23.4933 20.3835C23.4933 21.3494 23.2849 22.2017 22.8683 22.9403C22.4516 23.679 21.8479 24.2543 21.0572 24.6662C20.2712 25.0781 19.3195 25.2841 18.2021 25.2841H14.5444V22.8196H17.7049C18.2968 22.8196 18.7844 22.7178 19.168 22.5142C19.5562 22.3059 19.8451 22.0194 20.0344 21.6548C20.2286 21.2855 20.3256 20.8617 20.3256 20.3835C20.3256 19.9006 20.2286 19.4792 20.0344 19.1193C19.8451 18.7547 19.5562 18.473 19.168 18.2741C18.7797 18.0705 18.2873 17.9688 17.6907 17.9688H15.6168V30H12.5415Z" fill="white"/>
</g>
<defs>
<filter id="filter0_d_162_6" x="0" y="0" width="39.4238" height="50" filterUnits="userSpaceOnUse" color-interpolation-filters="sRGB">
<feFlood flood-opacity="0" result="BackgroundImageFix"/>
<feColorMatrix in="SourceAlpha" type="matrix" values="0 0 0 0 0 0 0 0 0 0 0 0 0 0 0 0 0 0 127 0" result="hardAlpha"/>
<feOffset dy="4"/>
<feGaussianBlur stdDeviation="2"/>
<feComposite in2="hardAlpha" operator="out"/>
<feColorMatrix type="matrix" values="0 0 0 0 0 0 0 0 0 0 0 0 0 0 0 0 0 0 0.25 0"/>
<feBlend mode="normal" in2="BackgroundImageFix" result="effect1_dropShadow_162_6"/>
<feBlend mode="normal" in="SourceGraphic" in2="effect1_dropShadow_162_6" result="shape"/>
</filter>
<filter id="filter1_d_162_6" x="4" y="0" width="39.4238" height="50" filterUnits="userSpaceOnUse" color-interpolation-filters="sRGB">
<feFlood flood-opacity="0" result="BackgroundImageFix"/>
<feColorMatrix in="SourceAlpha" type="matrix" values="0 0 0 0 0 0 0 0 0 0 0 0 0 0 0 0 0 0 127 0" result="hardAlpha"/>
<feOffset dx="4" dy="4"/>
<feGaussianBlur stdDeviation="2"/>
<feComposite in2="hardAlpha" operator="out"/>
<feColorMatrix type="matrix" values="0 0 0 0 0 0 0 0 0 0 0 0 0 0 0 0 0 0 0.25 0"/>
<feBlend mode="normal" in2="BackgroundImageFix" result="effect1_dropShadow_162_6"/>
<feBlend mode="normal" in="SourceGraphic" in2="effect1_dropShadow_162_6" result="shape"/>
</filter>
</defs>
</svg>
