<svg width="445" height="65" viewBox="0 0 445 65" fill="none" xmlns="http://www.w3.org/2000/svg">
<g filter="url(#filter0_d_60_190)">
<rect width="437" height="57" rx="4" fill="#2164C9"/>
</g>
<path d="M155.114 36V18.5455H161.011C162.381 18.5455 163.5 18.7926 164.369 19.2869C165.244 19.7756 165.892 20.4375 166.312 21.2727C166.733 22.108 166.943 23.0398 166.943 24.0682C166.943 25.0966 166.733 26.0312 166.312 26.8722C165.898 27.7131 165.256 28.3835 164.386 28.8835C163.517 29.3778 162.403 29.625 161.045 29.625H156.818V27.75H160.977C161.915 27.75 162.668 27.5881 163.236 27.2642C163.804 26.9403 164.216 26.5028 164.472 25.9517C164.733 25.3949 164.864 24.767 164.864 24.0682C164.864 23.3693 164.733 22.7443 164.472 22.1932C164.216 21.642 163.801 21.2102 163.227 20.8977C162.653 20.5795 161.892 20.4205 160.943 20.4205H157.227V36H155.114ZM170.348 36V18.5455H180.882V20.4205H172.462V26.3182H180.337V28.1932H172.462V34.125H181.018V36H170.348ZM198.533 18.5455V36H196.487L186.976 22.2955H186.805V36H184.692V18.5455H186.737L196.283 32.2841H196.453V18.5455H198.533ZM208.148 36H202.762V18.5455H208.387C210.08 18.5455 211.529 18.8949 212.734 19.5938C213.938 20.2869 214.862 21.2841 215.504 22.5852C216.146 23.8807 216.467 25.4318 216.467 27.2386C216.467 29.0568 216.143 30.6222 215.495 31.9347C214.847 33.2415 213.904 34.2472 212.665 34.9517C211.427 35.6506 209.921 36 208.148 36ZM204.876 34.125H208.012C209.455 34.125 210.651 33.8466 211.6 33.2898C212.549 32.733 213.256 31.9403 213.722 30.9119C214.188 29.8835 214.421 28.6591 214.421 27.2386C214.421 25.8295 214.191 24.6165 213.731 23.5994C213.271 22.5767 212.583 21.7926 211.668 21.2472C210.754 20.696 209.614 20.4205 208.251 20.4205H204.876V34.125ZM222.126 18.5455V36H220.012V18.5455H222.126ZM240.205 18.5455V36H238.159L228.648 22.2955H228.477V36H226.364V18.5455H228.409L237.955 32.2841H238.125V18.5455H240.205ZM256.366 24C256.178 23.4261 255.931 22.9119 255.624 22.4574C255.323 21.9972 254.962 21.6051 254.542 21.2812C254.127 20.9574 253.656 20.7102 253.127 20.5398C252.599 20.3693 252.019 20.2841 251.388 20.2841C250.354 20.2841 249.414 20.5511 248.567 21.0852C247.721 21.6193 247.048 22.4062 246.548 23.446C246.048 24.4858 245.798 25.7614 245.798 27.2727C245.798 28.7841 246.05 30.0597 246.556 31.0994C247.062 32.1392 247.746 32.9261 248.61 33.4602C249.474 33.9943 250.445 34.2614 251.525 34.2614C252.525 34.2614 253.406 34.0483 254.167 33.6222C254.934 33.1903 255.531 32.5824 255.957 31.7983C256.388 31.0085 256.604 30.0795 256.604 29.0114L257.252 29.1477H252.002V27.2727H258.65V29.1477C258.65 30.5852 258.343 31.8352 257.729 32.8977C257.121 33.9602 256.281 34.7841 255.207 35.3693C254.138 35.9489 252.911 36.2386 251.525 36.2386C249.979 36.2386 248.621 35.875 247.451 35.1477C246.286 34.4205 245.377 33.3864 244.724 32.0455C244.076 30.7045 243.752 29.1136 243.752 27.2727C243.752 25.892 243.937 24.6506 244.306 23.5483C244.681 22.4403 245.21 21.4972 245.891 20.7188C246.573 19.9403 247.38 19.3438 248.312 18.929C249.244 18.5142 250.269 18.3068 251.388 18.3068C252.309 18.3068 253.167 18.446 253.962 18.7244C254.763 18.9972 255.477 19.3864 256.102 19.892C256.732 20.392 257.258 20.9915 257.678 21.6903C258.099 22.3835 258.388 23.1534 258.548 24H256.366Z" fill="#E1F3F5"/>
<path d="M155.114 36H154.114V37H155.114V36ZM155.114 18.5455V17.5455H154.114V18.5455H155.114ZM164.369 19.2869L163.875 20.1562L163.882 20.16L164.369 19.2869ZM166.312 21.2727L165.419 21.7224V21.7224L166.312 21.2727ZM166.312 26.8722L165.418 26.4249L165.416 26.4298L166.312 26.8722ZM164.386 28.8835L164.881 29.7528L164.885 29.7504L164.386 28.8835ZM156.818 29.625H155.818V30.625H156.818V29.625ZM156.818 27.75V26.75H155.818V27.75H156.818ZM163.236 27.2642L162.741 26.3954L163.236 27.2642ZM164.472 25.9517L163.566 25.5268L163.564 25.5309L164.472 25.9517ZM164.472 22.1932L163.564 22.614L163.568 22.6217L164.472 22.1932ZM163.227 20.8977L162.742 21.7723L162.749 21.776L163.227 20.8977ZM157.227 20.4205V19.4205H156.227V20.4205H157.227ZM157.227 36V37H158.227V36H157.227ZM156.114 36V18.5455H154.114V36H156.114ZM155.114 19.5455H161.011V17.5455H155.114V19.5455ZM161.011 19.5455C162.269 19.5455 163.202 19.7735 163.875 20.1562L164.864 18.4176C163.798 17.8118 162.493 17.5455 161.011 17.5455V19.5455ZM163.882 20.16C164.595 20.5586 165.095 21.0787 165.419 21.7224L167.206 20.8231C166.689 19.7963 165.893 18.9926 164.857 18.4138L163.882 20.16ZM165.419 21.7224C165.763 22.4046 165.943 23.1801 165.943 24.0682H167.943C167.943 22.8994 167.703 21.8113 167.206 20.8231L165.419 21.7224ZM165.943 24.0682C165.943 24.9562 165.763 25.7356 165.418 26.4249L167.207 27.3194C167.703 26.3269 167.943 25.237 167.943 24.0682H165.943ZM165.416 26.4298C165.095 27.0803 164.598 27.6083 163.888 28.0167L164.885 29.7504C165.914 29.1587 166.701 28.3458 167.209 27.3145L165.416 26.4298ZM163.892 28.0142C163.218 28.3976 162.29 28.625 161.045 28.625V30.625C162.517 30.625 163.816 30.3581 164.881 29.7528L163.892 28.0142ZM161.045 28.625H156.818V30.625H161.045V28.625ZM157.818 29.625V27.75H155.818V29.625H157.818ZM156.818 28.75H160.977V26.75H156.818V28.75ZM160.977 28.75C162.018 28.75 162.96 28.5722 163.731 28.133L162.741 26.3954C162.375 26.604 161.812 26.75 160.977 26.75V28.75ZM163.731 28.133C164.465 27.7145 165.029 27.1268 165.379 26.3725L163.564 25.5309C163.403 25.8789 163.143 26.1662 162.741 26.3954L163.731 28.133ZM165.377 26.3766C165.709 25.6698 165.864 24.8939 165.864 24.0682H163.864C163.864 24.6402 163.757 25.12 163.566 25.5268L165.377 26.3766ZM165.864 24.0682C165.864 23.2427 165.709 22.468 165.375 21.7647L163.568 22.6217C163.757 23.0207 163.864 23.4959 163.864 24.0682H165.864ZM165.379 21.7723C165.026 21.0117 164.453 20.4263 163.706 20.0195L162.749 21.776C163.15 21.9941 163.406 22.2724 163.564 22.614L165.379 21.7723ZM163.712 20.0232C162.938 19.5941 161.991 19.4205 160.943 19.4205V21.4205C161.793 21.4205 162.368 21.565 162.742 21.7723L163.712 20.0232ZM160.943 19.4205H157.227V21.4205H160.943V19.4205ZM156.227 20.4205V36H158.227V20.4205H156.227ZM157.227 35H155.114V37H157.227V35ZM170.348 36H169.348V37H170.348V36ZM170.348 18.5455V17.5455H169.348V18.5455H170.348ZM180.882 18.5455H181.882V17.5455H180.882V18.5455ZM180.882 20.4205V21.4205H181.882V20.4205H180.882ZM172.462 20.4205V19.4205H171.462V20.4205H172.462ZM172.462 26.3182H171.462V27.3182H172.462V26.3182ZM180.337 26.3182H181.337V25.3182H180.337V26.3182ZM180.337 28.1932V29.1932H181.337V28.1932H180.337ZM172.462 28.1932V27.1932H171.462V28.1932H172.462ZM172.462 34.125H171.462V35.125H172.462V34.125ZM181.018 34.125H182.018V33.125H181.018V34.125ZM181.018 36V37H182.018V36H181.018ZM171.348 36V18.5455H169.348V36H171.348ZM170.348 19.5455H180.882V17.5455H170.348V19.5455ZM179.882 18.5455V20.4205H181.882V18.5455H179.882ZM180.882 19.4205H172.462V21.4205H180.882V19.4205ZM171.462 20.4205V26.3182H173.462V20.4205H171.462ZM172.462 27.3182H180.337V25.3182H172.462V27.3182ZM179.337 26.3182V28.1932H181.337V26.3182H179.337ZM180.337 27.1932H172.462V29.1932H180.337V27.1932ZM171.462 28.1932V34.125H173.462V28.1932H171.462ZM172.462 35.125H181.018V33.125H172.462V35.125ZM180.018 34.125V36H182.018V34.125H180.018ZM181.018 35H170.348V37H181.018V35ZM198.533 18.5455H199.533V17.5455H198.533V18.5455ZM198.533 36V37H199.533V36H198.533ZM196.487 36L195.666 36.5702L195.964 37H196.487V36ZM186.976 22.2955L187.797 21.7253L187.499 21.2955H186.976V22.2955ZM186.805 22.2955V21.2955H185.805V22.2955H186.805ZM186.805 36V37H187.805V36H186.805ZM184.692 36H183.692V37H184.692V36ZM184.692 18.5455V17.5455H183.692V18.5455H184.692ZM186.737 18.5455L187.558 17.9749L187.26 17.5455H186.737V18.5455ZM196.283 32.2841L195.461 32.8547L195.76 33.2841H196.283V32.2841ZM196.453 32.2841V33.2841H197.453V32.2841H196.453ZM196.453 18.5455V17.5455H195.453V18.5455H196.453ZM197.533 18.5455V36H199.533V18.5455H197.533ZM198.533 35H196.487V37H198.533V35ZM197.309 35.4298L187.797 21.7253L186.154 22.8656L195.666 36.5702L197.309 35.4298ZM186.976 21.2955H186.805V23.2955H186.976V21.2955ZM185.805 22.2955V36H187.805V22.2955H185.805ZM186.805 35H184.692V37H186.805V35ZM185.692 36V18.5455H183.692V36H185.692ZM184.692 19.5455H186.737V17.5455H184.692V19.5455ZM185.916 19.116L195.461 32.8547L197.104 31.7135L187.558 17.9749L185.916 19.116ZM196.283 33.2841H196.453V31.2841H196.283V33.2841ZM197.453 32.2841V18.5455H195.453V32.2841H197.453ZM196.453 19.5455H198.533V17.5455H196.453V19.5455ZM202.762 36H201.762V37H202.762V36ZM202.762 18.5455V17.5455H201.762V18.5455H202.762ZM212.734 19.5938L212.232 20.4587L212.235 20.4605L212.734 19.5938ZM215.504 22.5852L214.607 23.0277L214.608 23.0293L215.504 22.5852ZM215.495 31.9347L216.391 32.3788L216.392 32.3772L215.495 31.9347ZM212.665 34.9517L213.157 35.8226L213.16 35.8209L212.665 34.9517ZM204.876 34.125H203.876V35.125H204.876V34.125ZM213.731 23.5994L212.819 24.0098L212.82 24.0117L213.731 23.5994ZM211.668 21.2472L211.152 22.1037L211.156 22.1061L211.668 21.2472ZM204.876 20.4205V19.4205H203.876V20.4205H204.876ZM208.148 35H202.762V37H208.148V35ZM203.762 36V18.5455H201.762V36H203.762ZM202.762 19.5455H208.387V17.5455H202.762V19.5455ZM208.387 19.5455C209.942 19.5455 211.21 19.8656 212.232 20.4587L213.236 18.7288C211.849 17.9242 210.219 17.5455 208.387 17.5455V19.5455ZM212.235 20.4605C213.26 21.0503 214.048 21.896 214.607 23.0277L216.4 22.1427C215.675 20.6721 214.617 19.5235 213.232 18.727L212.235 20.4605ZM214.608 23.0293C215.166 24.1566 215.467 25.5483 215.467 27.2386H217.467C217.467 25.3153 217.125 23.6048 216.4 22.1412L214.608 23.0293ZM215.467 27.2386C215.467 28.9397 215.164 30.3465 214.598 31.4921L216.392 32.3772C217.122 30.8978 217.467 29.1739 217.467 27.2386H215.467ZM214.599 31.4906C214.038 32.6233 213.232 33.4789 212.171 34.0825L213.16 35.8209C214.576 35.0154 215.657 33.8597 216.391 32.3788L214.599 31.4906ZM212.174 34.0808C211.118 34.6766 209.791 35 208.148 35V37C210.051 37 211.736 36.6246 213.157 35.8226L212.174 34.0808ZM204.876 35.125H208.012V33.125H204.876V35.125ZM208.012 35.125C209.579 35.125 210.963 34.823 212.106 34.1522L211.094 32.4273C210.339 32.8702 209.331 33.125 208.012 33.125V35.125ZM212.106 34.1522C213.238 33.488 214.084 32.5359 214.633 31.3246L212.811 30.4993C212.428 31.3448 211.86 31.9779 211.094 32.4273L212.106 34.1522ZM214.633 31.3246C215.171 30.1376 215.421 28.7658 215.421 27.2386H213.421C213.421 28.5523 213.205 29.6294 212.811 30.4993L214.633 31.3246ZM215.421 27.2386C215.421 25.7234 215.174 24.363 214.642 23.1872L212.82 24.0117C213.208 24.8699 213.421 25.9357 213.421 27.2386H215.421ZM214.643 23.1891C214.103 21.9899 213.281 21.0445 212.18 20.3883L211.156 22.1061C211.885 22.5408 212.438 23.1635 212.819 24.0098L214.643 23.1891ZM212.184 20.3906C211.076 19.723 209.747 19.4205 208.251 19.4205V21.4205C209.482 21.4205 210.431 21.6691 211.152 22.1037L212.184 20.3906ZM208.251 19.4205H204.876V21.4205H208.251V19.4205ZM203.876 20.4205V34.125H205.876V20.4205H203.876ZM222.126 18.5455H223.126V17.5455H222.126V18.5455ZM222.126 36V37H223.126V36H222.126ZM220.012 36H219.012V37H220.012V36ZM220.012 18.5455V17.5455H219.012V18.5455H220.012ZM221.126 18.5455V36H223.126V18.5455H221.126ZM222.126 35H220.012V37H222.126V35ZM221.012 36V18.5455H219.012V36H221.012ZM220.012 19.5455H222.126V17.5455H220.012V19.5455ZM240.205 18.5455H241.205V17.5455H240.205V18.5455ZM240.205 36V37H241.205V36H240.205ZM238.159 36L237.338 36.5702L237.636 37H238.159V36ZM228.648 22.2955L229.469 21.7253L229.171 21.2955H228.648V22.2955ZM228.477 22.2955V21.2955H227.477V22.2955H228.477ZM228.477 36V37H229.477V36H228.477ZM226.364 36H225.364V37H226.364V36ZM226.364 18.5455V17.5455H225.364V18.5455H226.364ZM228.409 18.5455L229.23 17.9749L228.932 17.5455H228.409V18.5455ZM237.955 32.2841L237.133 32.8547L237.432 33.2841H237.955V32.2841ZM238.125 32.2841V33.2841H239.125V32.2841H238.125ZM238.125 18.5455V17.5455H237.125V18.5455H238.125ZM239.205 18.5455V36H241.205V18.5455H239.205ZM240.205 35H238.159V37H240.205V35ZM238.981 35.4298L229.469 21.7253L227.826 22.8656L237.338 36.5702L238.981 35.4298ZM228.648 21.2955H228.477V23.2955H228.648V21.2955ZM227.477 22.2955V36H229.477V22.2955H227.477ZM228.477 35H226.364V37H228.477V35ZM227.364 36V18.5455H225.364V36H227.364ZM226.364 19.5455H228.409V17.5455H226.364V19.5455ZM227.588 19.116L237.133 32.8547L238.776 31.7135L229.23 17.9749L227.588 19.116ZM237.955 33.2841H238.125V31.2841H237.955V33.2841ZM239.125 32.2841V18.5455H237.125V32.2841H239.125ZM238.125 19.5455H240.205V17.5455H238.125V19.5455ZM256.366 24L255.415 24.3106L255.64 25H256.366V24ZM255.624 22.4574L254.787 23.0049L254.791 23.0109L254.795 23.0169L255.624 22.4574ZM254.542 21.2812L253.926 22.0695L253.932 22.0735L254.542 21.2812ZM253.127 20.5398L253.434 19.5881V19.5881L253.127 20.5398ZM246.548 23.446L247.449 23.8794L246.548 23.446ZM246.556 31.0994L245.657 31.5368L246.556 31.0994ZM254.167 33.6222L254.655 34.4948L254.657 34.4936L254.167 33.6222ZM255.957 31.7983L255.079 31.3186L255.078 31.3208L255.957 31.7983ZM256.604 29.0114L256.81 28.0328L255.604 27.7789V29.0114H256.604ZM257.252 29.1477V30.1477L257.458 28.1692L257.252 29.1477ZM252.002 29.1477H251.002V30.1477H252.002V29.1477ZM252.002 27.2727V26.2727H251.002V27.2727H252.002ZM258.65 27.2727H259.65V26.2727H258.65V27.2727ZM257.729 32.8977L256.863 32.3976L256.861 32.4011L257.729 32.8977ZM255.207 35.3693L255.684 36.2483L255.685 36.2474L255.207 35.3693ZM247.451 35.1477L246.921 35.996L246.923 35.9971L247.451 35.1477ZM244.724 32.0455L243.823 32.4804L243.825 32.4835L244.724 32.0455ZM244.306 23.5483L243.359 23.2277L243.358 23.2306L244.306 23.5483ZM245.891 20.7188L246.644 21.3776L245.891 20.7188ZM253.962 18.7244L253.632 19.6683L253.64 19.6711L253.962 18.7244ZM256.102 19.892L255.473 20.6695L255.48 20.6757L256.102 19.892ZM257.678 21.6903L256.821 22.2059L256.823 22.209L257.678 21.6903ZM258.548 24V25H259.753L259.53 23.8153L258.548 24ZM257.316 23.6894C257.103 23.0361 256.817 22.4367 256.453 21.8979L254.795 23.0169C255.045 23.3872 255.254 23.8161 255.415 24.3106L257.316 23.6894ZM256.461 21.9099C256.101 21.3594 255.664 20.8837 255.152 20.489L253.932 22.0735C254.26 22.3266 254.545 22.6349 254.787 23.0049L256.461 21.9099ZM255.157 20.4931C254.645 20.0931 254.068 19.7925 253.434 19.5881L252.82 21.4915C253.243 21.6279 253.609 21.8216 253.926 22.0694L255.157 20.4931ZM253.434 19.5881C252.794 19.3816 252.109 19.2841 251.388 19.2841V21.2841C251.929 21.2841 252.403 21.357 252.82 21.4915L253.434 19.5881ZM251.388 19.2841C250.172 19.2841 249.046 19.6012 248.034 20.2395L249.101 21.931C249.782 21.5011 250.537 21.2841 251.388 21.2841V19.2841ZM248.034 20.2395C247.005 20.8883 246.215 21.83 245.646 23.0127L247.449 23.8794C247.88 22.9825 248.436 22.3503 249.101 21.931L248.034 20.2395ZM245.646 23.0127C245.064 24.2228 244.798 25.6559 244.798 27.2727H246.798C246.798 25.8668 247.031 24.7488 247.449 23.8794L245.646 23.0127ZM244.798 27.2727C244.798 28.8909 245.068 30.3256 245.657 31.5368L247.455 30.6621C247.033 29.7938 246.798 28.6773 246.798 27.2727H244.798ZM245.657 31.5368C246.234 32.7226 247.038 33.6638 248.084 34.3107L249.136 32.6097C248.455 32.1885 247.89 31.5558 247.455 30.6621L245.657 31.5368ZM248.084 34.3107C249.116 34.9488 250.272 35.2614 251.525 35.2614V33.2614C250.619 33.2614 249.832 33.0398 249.136 32.6097L248.084 34.3107ZM251.525 35.2614C252.671 35.2614 253.724 35.016 254.655 34.4948L253.678 32.7495C253.087 33.0806 252.379 33.2614 251.525 33.2614V35.2614ZM254.657 34.4936C255.591 33.9682 256.321 33.2226 256.835 32.2758L255.078 31.3208C254.74 31.9421 254.277 32.4125 253.676 32.7508L254.657 34.4936ZM256.834 32.278C257.36 31.3159 257.604 30.2159 257.604 29.0114H255.604C255.604 29.9432 255.417 30.7011 255.079 31.3186L256.834 32.278ZM256.398 29.9899L257.046 30.1263L257.458 28.1692L256.81 28.0328L256.398 29.9899ZM257.252 28.1477H252.002V30.1477H257.252V28.1477ZM253.002 29.1477V27.2727H251.002V29.1477H253.002ZM252.002 28.2727H258.65V26.2727H252.002V28.2727ZM257.65 27.2727V29.1477H259.65V27.2727H257.65ZM257.65 29.1477C257.65 30.44 257.375 31.5115 256.863 32.3976L258.595 33.3979C259.311 32.159 259.65 30.7304 259.65 29.1477H257.65ZM256.861 32.4011C256.345 33.303 255.639 33.9947 254.728 34.4912L255.685 36.2474C256.922 35.5734 257.898 34.6175 258.597 33.3944L256.861 32.4011ZM254.73 34.4904C253.828 34.9799 252.768 35.2386 251.525 35.2386V37.2386C253.054 37.2386 254.449 36.9178 255.684 36.2483L254.73 34.4904ZM251.525 35.2386C250.143 35.2386 248.972 34.9156 247.979 34.2983L246.923 35.9971C248.271 36.8344 249.816 37.2386 251.525 37.2386V35.2386ZM247.981 34.2995C246.989 33.6801 246.201 32.7948 245.623 31.6074L243.825 32.4835C244.553 33.978 245.584 35.1608 246.921 35.996L247.981 34.2995ZM245.624 31.6105C245.056 30.4334 244.752 28.9978 244.752 27.2727H242.752C242.752 29.2295 243.096 30.9757 243.823 32.4804L245.624 31.6105ZM244.752 27.2727C244.752 25.9803 244.925 24.8487 245.254 23.866L243.358 23.2306C242.949 24.4524 242.752 25.8038 242.752 27.2727H244.752ZM245.253 23.8689C245.592 22.8693 246.059 22.0451 246.644 21.3776L245.139 20.0599C244.36 20.9492 243.771 22.0114 243.359 23.2277L245.253 23.8689ZM246.644 21.3776C247.231 20.7065 247.921 20.1976 248.718 19.8426L247.905 18.0154C246.839 18.4899 245.915 19.1742 245.139 20.0599L246.644 21.3776ZM248.718 19.8426C249.51 19.4901 250.396 19.3068 251.388 19.3068V17.3068C250.143 17.3068 248.977 17.5383 247.905 18.0154L248.718 19.8426ZM251.388 19.3068C252.207 19.3068 252.952 19.4303 253.632 19.6683L254.293 17.7806C253.382 17.4617 252.411 17.3068 251.388 17.3068V19.3068ZM253.64 19.6711C254.336 19.9079 254.944 20.2416 255.473 20.6695L256.731 19.1146C256.009 18.5311 255.191 18.0864 254.285 17.7778L253.64 19.6711ZM255.48 20.6757C256.016 21.1001 256.462 21.6084 256.821 22.2059L258.535 21.1748C258.054 20.3746 257.449 19.684 256.723 19.1084L255.48 20.6757ZM256.823 22.209C257.178 22.7931 257.426 23.4487 257.565 24.1847L259.53 23.8153C259.351 22.8581 259.02 21.9739 258.533 21.1717L256.823 22.209ZM258.548 23H256.366V25H258.548V23Z" fill="black" fill-opacity="0.25"/>
<rect width="31" height="24" transform="translate(102 14)" fill="#FFD1D1"/>
<path d="M109.75 16V22H109.763L109.75 22.01L114.917 26L109.75 30L109.763 30.01H109.75V36H125.25V30.01H125.237L125.25 30L120.083 26L125.25 22.01L125.237 22H125.25V16H109.75ZM122.667 30.5V34H112.333V30.5L117.5 26.5L122.667 30.5ZM117.5 25.5L112.333 21.5V18H122.667V21.5L117.5 25.5Z" fill="black"/>
<defs>
<filter id="filter0_d_60_190" x="0" y="0" width="445" height="65" filterUnits="userSpaceOnUse" color-interpolation-filters="sRGB">
<feFlood flood-opacity="0" result="BackgroundImageFix"/>
<feColorMatrix in="SourceAlpha" type="matrix" values="0 0 0 0 0 0 0 0 0 0 0 0 0 0 0 0 0 0 127 0" result="hardAlpha"/>
<feOffset dx="4" dy="4"/>
<feGaussianBlur stdDeviation="2"/>
<feComposite in2="hardAlpha" operator="out"/>
<feColorMatrix type="matrix" values="0 0 0 0 0 0 0 0 0 0 0 0 0 0 0 0 0 0 0.25 0"/>
<feBlend mode="normal" in2="BackgroundImageFix" result="effect1_dropShadow_60_190"/>
<feBlend mode="normal" in="SourceGraphic" in2="effect1_dropShadow_60_190" result="shape"/>
</filter>
</defs>
</svg>
