<svg width="445" height="65" viewBox="0 0 445 65" fill="none" xmlns="http://www.w3.org/2000/svg">
<g filter="url(#filter0_d_60_246)">
<rect width="437" height="57" rx="4" fill="#2164C9"/>
</g>
<path d="M142 14V37.25H166V14H142ZM160.667 30.2621L158.787 32.0833L154 27.4462L149.213 32.0833L147.333 30.2621L152.12 25.625L147.333 20.9879L149.213 19.1667L154 23.8038L158.787 19.1667L160.667 20.9879L155.88 25.625L160.667 30.2621Z" fill="#FFD1D1"/>
<path d="M188.114 35V17.5455H194.011C195.375 17.5455 196.494 17.7784 197.369 18.2443C198.244 18.7045 198.892 19.3381 199.312 20.1449C199.733 20.9517 199.943 21.8693 199.943 22.8977C199.943 23.9261 199.733 24.8381 199.312 25.6335C198.892 26.429 198.247 27.054 197.378 27.5085C196.509 27.9574 195.398 28.1818 194.045 28.1818H189.273V26.2727H193.977C194.909 26.2727 195.659 26.1364 196.227 25.8636C196.801 25.5909 197.216 25.2045 197.472 24.7045C197.733 24.1989 197.864 23.5966 197.864 22.8977C197.864 22.1989 197.733 21.5881 197.472 21.0653C197.21 20.5426 196.793 20.1392 196.219 19.8551C195.645 19.5653 194.886 19.4205 193.943 19.4205H190.227V35H188.114ZM196.33 27.1591L200.625 35H198.17L193.943 27.1591H196.33ZM203.465 35V17.5455H213.999V19.4205H205.579V25.3182H213.454V27.1932H205.579V33.125H214.136V35H203.465ZM224.491 17.5455H226.604V30.0227C226.604 31.1364 226.4 32.0824 225.991 32.8608C225.582 33.6392 225.005 34.2301 224.261 34.6335C223.516 35.0369 222.638 35.2386 221.627 35.2386C220.673 35.2386 219.823 35.0653 219.079 34.7188C218.335 34.3665 217.749 33.8665 217.323 33.2188C216.897 32.571 216.684 31.8011 216.684 30.9091H218.763C218.763 31.4034 218.886 31.8352 219.13 32.2045C219.38 32.5682 219.721 32.8523 220.153 33.0568C220.585 33.2614 221.076 33.3636 221.627 33.3636C222.235 33.3636 222.752 33.2358 223.178 32.9801C223.604 32.7244 223.928 32.3494 224.15 31.8551C224.377 31.3551 224.491 30.7443 224.491 30.0227V17.5455ZM230.84 35V17.5455H241.374V19.4205H232.954V25.3182H240.829V27.1932H232.954V33.125H241.511V35H230.84ZM259.229 23H257.116C256.991 22.392 256.772 21.858 256.46 21.3977C256.153 20.9375 255.778 20.5511 255.335 20.2386C254.897 19.9205 254.411 19.6818 253.877 19.5227C253.343 19.3636 252.786 19.2841 252.207 19.2841C251.15 19.2841 250.192 19.5511 249.335 20.0852C248.482 20.6193 247.803 21.4062 247.298 22.446C246.798 23.4858 246.548 24.7614 246.548 26.2727C246.548 27.7841 246.798 29.0597 247.298 30.0994C247.803 31.1392 248.482 31.9261 249.335 32.4602C250.192 32.9943 251.15 33.2614 252.207 33.2614C252.786 33.2614 253.343 33.1818 253.877 33.0227C254.411 32.8636 254.897 32.6278 255.335 32.3153C255.778 31.9972 256.153 31.608 256.46 31.1477C256.772 30.6818 256.991 30.1477 257.116 29.5455H259.229C259.07 30.4375 258.781 31.2358 258.36 31.9403C257.94 32.6449 257.417 33.2443 256.792 33.7386C256.167 34.2273 255.465 34.5994 254.687 34.8551C253.914 35.1108 253.087 35.2386 252.207 35.2386C250.718 35.2386 249.394 34.875 248.235 34.1477C247.076 33.4205 246.164 32.3864 245.499 31.0455C244.835 29.7045 244.502 28.1136 244.502 26.2727C244.502 24.4318 244.835 22.8409 245.499 21.5C246.164 20.1591 247.076 19.125 248.235 18.3977C249.394 17.6705 250.718 17.3068 252.207 17.3068C253.087 17.3068 253.914 17.4347 254.687 17.6903C255.465 17.946 256.167 18.321 256.792 18.8153C257.417 19.304 257.94 19.9006 258.36 20.6051C258.781 21.304 259.07 22.1023 259.229 23ZM261.69 19.4205V17.5455H274.781V19.4205H269.293V35H267.179V19.4205H261.69ZM278.043 35V17.5455H288.577V19.4205H280.157V25.3182H288.032V27.1932H280.157V33.125H288.714V35H278.043ZM297.773 35H292.387V17.5455H298.012C299.705 17.5455 301.154 17.8949 302.359 18.5938C303.563 19.2869 304.487 20.2841 305.129 21.5852C305.771 22.8807 306.092 24.4318 306.092 26.2386C306.092 28.0568 305.768 29.6222 305.12 30.9347C304.472 32.2415 303.529 33.2472 302.29 33.9517C301.052 34.6506 299.546 35 297.773 35ZM294.501 33.125H297.637C299.08 33.125 300.276 32.8466 301.225 32.2898C302.174 31.733 302.881 30.9403 303.347 29.9119C303.813 28.8835 304.046 27.6591 304.046 26.2386C304.046 24.8295 303.816 23.6165 303.356 22.5994C302.896 21.5767 302.208 20.7926 301.293 20.2472C300.379 19.696 299.239 19.4205 297.876 19.4205H294.501V33.125Z" fill="#E1F3F5"/>
<path d="M188.114 35H187.114V36H188.114V35ZM188.114 17.5455V16.5455H187.114V17.5455H188.114ZM197.369 18.2443L196.899 19.127L196.904 19.1294L197.369 18.2443ZM199.312 20.1449L198.426 20.607V20.607L199.312 20.1449ZM199.312 25.6335L198.428 25.1662L199.312 25.6335ZM197.378 27.5085L197.837 28.3971L197.841 28.3947L197.378 27.5085ZM189.273 28.1818H188.273V29.1818H189.273V28.1818ZM189.273 26.2727V25.2727H188.273V26.2727H189.273ZM196.227 25.8636L195.798 24.9604L195.795 24.9621L196.227 25.8636ZM197.472 24.7045L196.583 24.2454L196.581 24.2493L197.472 24.7045ZM196.219 19.8551L195.768 20.7478L195.775 20.7513L196.219 19.8551ZM190.227 19.4205V18.4205H189.227V19.4205H190.227ZM190.227 35V36H191.227V35H190.227ZM196.33 27.1591L197.207 26.6786L196.922 26.1591H196.33V27.1591ZM200.625 35V36H202.313L201.502 34.5195L200.625 35ZM198.17 35L197.29 35.4746L197.574 36H198.17V35ZM193.943 27.1591V26.1591H192.268L193.063 27.6336L193.943 27.1591ZM189.114 35V17.5455H187.114V35H189.114ZM188.114 18.5455H194.011V16.5455H188.114V18.5455ZM194.011 18.5455C195.27 18.5455 196.213 18.7616 196.899 19.127L197.839 17.3616C196.776 16.7952 195.48 16.5455 194.011 16.5455V18.5455ZM196.904 19.1294C197.615 19.5034 198.108 19.9965 198.426 20.607L200.199 19.6827C199.677 18.6796 198.874 17.9057 197.835 17.3593L196.904 19.1294ZM198.426 20.607C198.763 21.2535 198.943 22.009 198.943 22.8977H200.943C200.943 21.7296 200.703 20.6499 200.199 19.6827L198.426 20.607ZM198.943 22.8977C198.943 23.7867 198.762 24.5342 198.428 25.1662L200.197 26.1008C200.703 25.1419 200.943 24.0655 200.943 22.8977H198.943ZM198.428 25.1662C198.111 25.7665 197.621 26.2527 196.914 26.6224L197.841 28.3947C198.873 27.8552 199.673 27.0915 200.197 26.1008L198.428 25.1662ZM196.919 26.62C196.235 26.9731 195.296 27.1818 194.045 27.1818V29.1818C195.5 29.1818 196.782 28.9417 197.837 28.3971L196.919 26.62ZM194.045 27.1818H189.273V29.1818H194.045V27.1818ZM190.273 28.1818V26.2727H188.273V28.1818H190.273ZM189.273 27.2727H193.977V25.2727H189.273V27.2727ZM193.977 27.2727C194.993 27.2727 195.908 27.1262 196.66 26.7652L195.795 24.9621C195.41 25.1466 194.825 25.2727 193.977 25.2727V27.2727ZM196.657 26.7668C197.402 26.4127 197.993 25.8812 198.362 25.1598L196.581 24.2493C196.439 24.5279 196.201 24.7692 195.798 24.9604L196.657 26.7668ZM198.36 25.1637C198.71 24.4873 198.864 23.7205 198.864 22.8977H196.864C196.864 23.4727 196.756 23.9104 196.583 24.2454L198.36 25.1637ZM198.864 22.8977C198.864 22.0737 198.709 21.3043 198.366 20.6181L196.577 21.5126C196.757 21.8718 196.864 22.324 196.864 22.8977H198.864ZM198.366 20.6181C197.998 19.8818 197.412 19.3298 196.662 18.9589L195.775 20.7513C196.174 20.9486 196.423 21.2034 196.577 21.5126L198.366 20.6181ZM196.669 18.9625C195.906 18.5769 194.975 18.4205 193.943 18.4205V20.4205C194.797 20.4205 195.384 20.5538 195.768 20.7478L196.669 18.9625ZM193.943 18.4205H190.227V20.4205H193.943V18.4205ZM189.227 19.4205V35H191.227V19.4205H189.227ZM190.227 34H188.114V36H190.227V34ZM195.453 27.6395L199.748 35.4805L201.502 34.5195L197.207 26.6786L195.453 27.6395ZM200.625 34H198.17V36H200.625V34ZM199.051 34.5254L194.823 26.6845L193.063 27.6336L197.29 35.4746L199.051 34.5254ZM193.943 28.1591H196.33V26.1591H193.943V28.1591ZM203.465 35H202.465V36H203.465V35ZM203.465 17.5455V16.5455H202.465V17.5455H203.465ZM213.999 17.5455H214.999V16.5455H213.999V17.5455ZM213.999 19.4205V20.4205H214.999V19.4205H213.999ZM205.579 19.4205V18.4205H204.579V19.4205H205.579ZM205.579 25.3182H204.579V26.3182H205.579V25.3182ZM213.454 25.3182H214.454V24.3182H213.454V25.3182ZM213.454 27.1932V28.1932H214.454V27.1932H213.454ZM205.579 27.1932V26.1932H204.579V27.1932H205.579ZM205.579 33.125H204.579V34.125H205.579V33.125ZM214.136 33.125H215.136V32.125H214.136V33.125ZM214.136 35V36H215.136V35H214.136ZM204.465 35V17.5455H202.465V35H204.465ZM203.465 18.5455H213.999V16.5455H203.465V18.5455ZM212.999 17.5455V19.4205H214.999V17.5455H212.999ZM213.999 18.4205H205.579V20.4205H213.999V18.4205ZM204.579 19.4205V25.3182H206.579V19.4205H204.579ZM205.579 26.3182H213.454V24.3182H205.579V26.3182ZM212.454 25.3182V27.1932H214.454V25.3182H212.454ZM213.454 26.1932H205.579V28.1932H213.454V26.1932ZM204.579 27.1932V33.125H206.579V27.1932H204.579ZM205.579 34.125H214.136V32.125H205.579V34.125ZM213.136 33.125V35H215.136V33.125H213.136ZM214.136 34H203.465V36H214.136V34ZM224.491 17.5455V16.5455H223.491V17.5455H224.491ZM226.604 17.5455H227.604V16.5455H226.604V17.5455ZM225.991 32.8608L226.876 33.326L225.991 32.8608ZM224.261 34.6335L224.737 35.5127L224.261 34.6335ZM219.079 34.7188L218.651 35.6226L218.657 35.6253L219.079 34.7188ZM217.323 33.2188L216.488 33.7684L217.323 33.2188ZM216.684 30.9091V29.9091H215.684V30.9091H216.684ZM218.763 30.9091H219.763V29.9091H218.763V30.9091ZM219.13 32.2045L218.296 32.7563L218.301 32.7637L218.306 32.7711L219.13 32.2045ZM220.153 33.0568L220.581 32.1531L220.153 33.0568ZM223.178 32.9801L222.664 32.1226L223.178 32.9801ZM224.15 31.8551L223.239 31.4413L223.237 31.4461L224.15 31.8551ZM224.491 18.5455H226.604V16.5455H224.491V18.5455ZM225.604 17.5455V30.0227H227.604V17.5455H225.604ZM225.604 30.0227C225.604 31.0164 225.422 31.7938 225.106 32.3956L226.876 33.326C227.378 32.3709 227.604 31.2563 227.604 30.0227H225.604ZM225.106 32.3956C224.785 33.0057 224.347 33.4492 223.784 33.7543L224.737 35.5127C225.663 35.0111 226.378 34.2727 226.876 33.326L225.106 32.3956ZM223.784 33.7543C223.212 34.0644 222.504 34.2386 221.627 34.2386V36.2386C222.773 36.2386 223.821 36.0095 224.737 35.5127L223.784 33.7543ZM221.627 34.2386C220.795 34.2386 220.093 34.088 219.501 33.8122L218.657 35.6253C219.553 36.0427 220.55 36.2386 221.627 36.2386V34.2386ZM219.507 33.8149C218.917 33.536 218.478 33.154 218.159 32.6691L216.488 33.7684C217.021 34.579 217.752 35.197 218.651 35.6226L219.507 33.8149ZM218.159 32.6691C217.855 32.2081 217.684 31.636 217.684 30.9091H215.684C215.684 31.9663 215.939 32.9339 216.488 33.7684L218.159 32.6691ZM216.684 31.9091H218.763V29.9091H216.684V31.9091ZM217.763 30.9091C217.763 31.576 217.931 32.2046 218.296 32.7563L219.964 31.6528C219.84 31.4658 219.763 31.2308 219.763 30.9091H217.763ZM218.306 32.7711C218.664 33.292 219.147 33.687 219.725 33.9606L220.581 32.1531C220.295 32.0176 220.096 31.8444 219.954 31.638L218.306 32.7711ZM219.725 33.9606C220.309 34.2375 220.951 34.3636 221.627 34.3636V32.3636C221.201 32.3636 220.86 32.2852 220.581 32.1531L219.725 33.9606ZM221.627 34.3636C222.376 34.3636 223.08 34.2053 223.693 33.8376L222.664 32.1226C222.424 32.2662 222.094 32.3636 221.627 32.3636V34.3636ZM223.693 33.8376C224.31 33.4671 224.765 32.9275 225.062 32.2642L223.237 31.4461C223.092 31.7713 222.899 31.9817 222.664 32.1226L223.693 33.8376ZM225.06 32.2689C225.362 31.605 225.491 30.8443 225.491 30.0227H223.491C223.491 30.6443 223.392 31.1053 223.239 31.4413L225.06 32.2689ZM225.491 30.0227V17.5455H223.491V30.0227H225.491ZM230.84 35H229.84V36H230.84V35ZM230.84 17.5455V16.5455H229.84V17.5455H230.84ZM241.374 17.5455H242.374V16.5455H241.374V17.5455ZM241.374 19.4205V20.4205H242.374V19.4205H241.374ZM232.954 19.4205V18.4205H231.954V19.4205H232.954ZM232.954 25.3182H231.954V26.3182H232.954V25.3182ZM240.829 25.3182H241.829V24.3182H240.829V25.3182ZM240.829 27.1932V28.1932H241.829V27.1932H240.829ZM232.954 27.1932V26.1932H231.954V27.1932H232.954ZM232.954 33.125H231.954V34.125H232.954V33.125ZM241.511 33.125H242.511V32.125H241.511V33.125ZM241.511 35V36H242.511V35H241.511ZM231.84 35V17.5455H229.84V35H231.84ZM230.84 18.5455H241.374V16.5455H230.84V18.5455ZM240.374 17.5455V19.4205H242.374V17.5455H240.374ZM241.374 18.4205H232.954V20.4205H241.374V18.4205ZM231.954 19.4205V25.3182H233.954V19.4205H231.954ZM232.954 26.3182H240.829V24.3182H232.954V26.3182ZM239.829 25.3182V27.1932H241.829V25.3182H239.829ZM240.829 26.1932H232.954V28.1932H240.829V26.1932ZM231.954 27.1932V33.125H233.954V27.1932H231.954ZM232.954 34.125H241.511V32.125H232.954V34.125ZM240.511 33.125V35H242.511V33.125H240.511ZM241.511 34H230.84V36H241.511V34ZM259.229 23V24H260.422L260.214 22.8255L259.229 23ZM257.116 23L256.136 23.2014L256.3 24H257.116V23ZM256.46 21.3977L255.627 21.9524L255.632 21.9595L256.46 21.3977ZM255.335 20.2386L254.746 21.0474L254.752 21.0517L254.758 21.0559L255.335 20.2386ZM253.877 19.5227L253.592 20.4811L253.877 19.5227ZM249.335 20.0852L248.806 19.2363L248.804 19.2379L249.335 20.0852ZM247.298 22.446L246.398 22.0087L246.396 22.0127L247.298 22.446ZM247.298 30.0994L246.396 30.5328L246.398 30.5368L247.298 30.0994ZM249.335 32.4602L248.804 33.3076L248.806 33.3092L249.335 32.4602ZM253.877 33.0227L253.592 32.0643V32.0643L253.877 33.0227ZM255.335 32.3153L255.916 33.1291L255.918 33.1277L255.335 32.3153ZM256.46 31.1477L255.629 30.5907L255.627 30.593L256.46 31.1477ZM257.116 29.5455V28.5455H256.302L256.137 29.3422L257.116 29.5455ZM259.229 29.5455L260.214 29.721L260.424 28.5455H259.229V29.5455ZM258.36 31.9403L257.501 31.4279L258.36 31.9403ZM256.792 33.7386L257.408 34.5265L257.412 34.523L256.792 33.7386ZM254.687 34.8551L254.375 33.9051L254.373 33.9057L254.687 34.8551ZM248.235 34.1477L247.704 34.9948L248.235 34.1477ZM245.499 31.0455L246.395 30.6013L245.499 31.0455ZM254.687 17.6903L254.373 18.6397L254.375 18.6404L254.687 17.6903ZM256.792 18.8153L256.172 19.5997L256.176 19.6031L256.792 18.8153ZM258.36 20.6051L257.501 21.1176L257.503 21.1206L258.36 20.6051ZM259.229 22H257.116V24H259.229V22ZM258.095 22.7986C257.947 22.0766 257.681 21.4171 257.287 20.836L255.632 21.9595C255.863 22.2988 256.035 22.7075 256.136 23.2014L258.095 22.7986ZM257.292 20.843C256.918 20.2824 256.457 19.8063 255.911 19.4214L254.758 21.0559C255.099 21.2959 255.388 21.5926 255.627 21.9524L257.292 20.843ZM255.923 19.4299C255.391 19.043 254.802 18.7548 254.163 18.5643L253.592 20.4811C254.02 20.6088 254.403 20.7979 254.746 21.0474L255.923 19.4299ZM254.163 18.5643C253.532 18.3766 252.879 18.2841 252.207 18.2841V20.2841C252.693 20.2841 253.154 20.3507 253.592 20.4811L254.163 18.5643ZM252.207 18.2841C250.972 18.2841 249.83 18.5988 248.806 19.2363L249.863 20.9342C250.555 20.5034 251.328 20.2841 252.207 20.2841V18.2841ZM248.804 19.2379C247.77 19.8856 246.973 20.8262 246.398 22.0087L248.197 22.8834C248.633 21.9863 249.195 21.353 249.866 20.9326L248.804 19.2379ZM246.396 22.0127C245.814 23.2228 245.548 24.6559 245.548 26.2727H247.548C247.548 24.8668 247.781 23.7488 248.199 22.8794L246.396 22.0127ZM245.548 26.2727C245.548 27.8895 245.814 29.3227 246.396 30.5328L248.199 29.6661C247.781 28.7967 247.548 27.6787 247.548 26.2727H245.548ZM246.398 30.5368C246.973 31.7193 247.77 32.6598 248.804 33.3076L249.866 31.6129C249.195 31.1924 248.633 30.5591 248.197 29.6621L246.398 30.5368ZM248.806 33.3092C249.83 33.9466 250.972 34.2614 252.207 34.2614V32.2614C251.328 32.2614 250.555 32.042 249.863 31.6113L248.806 33.3092ZM252.207 34.2614C252.879 34.2614 253.532 34.1689 254.163 33.9811L253.592 32.0643C253.154 32.1947 252.693 32.2614 252.207 32.2614V34.2614ZM254.163 33.9811C254.799 33.7916 255.385 33.5081 255.916 33.1291L254.753 31.5016C254.409 31.7475 254.024 31.9356 253.592 32.0643L254.163 33.9811ZM255.918 33.1277C256.46 32.7383 256.919 32.2614 257.292 31.7024L255.627 30.593C255.386 30.9545 255.095 31.256 254.751 31.503L255.918 33.1277ZM257.29 31.7048C257.681 31.1217 257.946 30.4651 258.095 29.7487L256.137 29.3422C256.035 29.8303 255.863 30.2419 255.629 30.5907L257.29 31.7048ZM257.116 30.5455H259.229V28.5455H257.116V30.5455ZM258.245 29.3699C258.105 30.1554 257.854 30.8374 257.501 31.4279L259.219 32.4528C259.707 31.6342 260.036 30.7196 260.214 29.721L258.245 29.3699ZM257.501 31.4279C257.141 32.0312 256.698 32.5376 256.172 32.9543L257.412 34.523C258.135 33.951 258.738 33.2586 259.219 32.4528L257.501 31.4279ZM256.176 32.9508C255.645 33.3659 255.047 33.6843 254.375 33.9051L254.999 35.8052C255.884 35.5146 256.689 35.0887 257.408 34.5264L256.176 32.9508ZM254.373 33.9057C253.709 34.1252 252.989 34.2386 252.207 34.2386V36.2386C253.185 36.2386 254.119 36.0963 255.001 35.8045L254.373 33.9057ZM252.207 34.2386C250.889 34.2386 249.752 33.9193 248.767 33.3007L247.704 34.9948C249.036 35.8307 250.547 36.2386 252.207 36.2386V34.2386ZM248.767 33.3007C247.778 32.6806 246.986 31.7929 246.395 30.6013L244.603 31.4896C245.342 32.9799 246.374 34.1603 247.704 34.9948L248.767 33.3007ZM246.395 30.6013C245.813 29.4265 245.502 27.9943 245.502 26.2727H243.502C243.502 28.2329 243.856 29.9825 244.603 31.4896L246.395 30.6013ZM245.502 26.2727C245.502 24.5511 245.813 23.1189 246.395 21.9442L244.603 21.0558C243.856 22.5629 243.502 24.3125 243.502 26.2727H245.502ZM246.395 21.9442C246.986 20.7526 247.778 19.8649 248.767 19.2448L247.704 17.5507C246.374 18.3851 245.342 19.5656 244.603 21.0558L246.395 21.9442ZM248.767 19.2448C249.752 18.6262 250.889 18.3068 252.207 18.3068V16.3068C250.547 16.3068 249.036 16.7147 247.704 17.5507L248.767 19.2448ZM252.207 18.3068C252.989 18.3068 253.709 18.4202 254.373 18.6397L255.001 16.741C254.119 16.4491 253.185 16.3068 252.207 16.3068V18.3068ZM254.375 18.6404C255.045 18.8604 255.641 19.1804 256.172 19.5997L257.412 18.031C256.692 17.4617 255.886 17.0316 254.999 16.7403L254.375 18.6404ZM256.176 19.6031C256.7 20.0132 257.142 20.5153 257.501 21.1176L259.219 20.0927C258.737 19.2858 258.133 18.5948 257.408 18.0275L256.176 19.6031ZM257.503 21.1206C257.854 21.703 258.105 22.3832 258.245 23.1745L260.214 22.8255C260.036 21.8214 259.708 20.905 259.217 20.0896L257.503 21.1206ZM261.69 19.4205H260.69V20.4205H261.69V19.4205ZM261.69 17.5455V16.5455H260.69V17.5455H261.69ZM274.781 17.5455H275.781V16.5455H274.781V17.5455ZM274.781 19.4205V20.4205H275.781V19.4205H274.781ZM269.293 19.4205V18.4205H268.293V19.4205H269.293ZM269.293 35V36H270.293V35H269.293ZM267.179 35H266.179V36H267.179V35ZM267.179 19.4205H268.179V18.4205H267.179V19.4205ZM262.69 19.4205V17.5455H260.69V19.4205H262.69ZM261.69 18.5455H274.781V16.5455H261.69V18.5455ZM273.781 17.5455V19.4205H275.781V17.5455H273.781ZM274.781 18.4205H269.293V20.4205H274.781V18.4205ZM268.293 19.4205V35H270.293V19.4205H268.293ZM269.293 34H267.179V36H269.293V34ZM268.179 35V19.4205H266.179V35H268.179ZM267.179 18.4205H261.69V20.4205H267.179V18.4205ZM278.043 35H277.043V36H278.043V35ZM278.043 17.5455V16.5455H277.043V17.5455H278.043ZM288.577 17.5455H289.577V16.5455H288.577V17.5455ZM288.577 19.4205V20.4205H289.577V19.4205H288.577ZM280.157 19.4205V18.4205H279.157V19.4205H280.157ZM280.157 25.3182H279.157V26.3182H280.157V25.3182ZM288.032 25.3182H289.032V24.3182H288.032V25.3182ZM288.032 27.1932V28.1932H289.032V27.1932H288.032ZM280.157 27.1932V26.1932H279.157V27.1932H280.157ZM280.157 33.125H279.157V34.125H280.157V33.125ZM288.714 33.125H289.714V32.125H288.714V33.125ZM288.714 35V36H289.714V35H288.714ZM279.043 35V17.5455H277.043V35H279.043ZM278.043 18.5455H288.577V16.5455H278.043V18.5455ZM287.577 17.5455V19.4205H289.577V17.5455H287.577ZM288.577 18.4205H280.157V20.4205H288.577V18.4205ZM279.157 19.4205V25.3182H281.157V19.4205H279.157ZM280.157 26.3182H288.032V24.3182H280.157V26.3182ZM287.032 25.3182V27.1932H289.032V25.3182H287.032ZM288.032 26.1932H280.157V28.1932H288.032V26.1932ZM279.157 27.1932V33.125H281.157V27.1932H279.157ZM280.157 34.125H288.714V32.125H280.157V34.125ZM287.714 33.125V35H289.714V33.125H287.714ZM288.714 34H278.043V36H288.714V34ZM292.387 35H291.387V36H292.387V35ZM292.387 17.5455V16.5455H291.387V17.5455H292.387ZM302.359 18.5938L301.857 19.4587L301.86 19.4605L302.359 18.5938ZM305.129 21.5852L304.232 22.0277L304.233 22.0293L305.129 21.5852ZM305.12 30.9347L306.016 31.3788L306.017 31.3772L305.12 30.9347ZM302.29 33.9517L302.782 34.8226L302.785 34.8209L302.29 33.9517ZM294.501 33.125H293.501V34.125H294.501V33.125ZM303.356 22.5994L302.444 23.0098L302.445 23.0117L303.356 22.5994ZM301.293 20.2472L300.777 21.1037L300.781 21.1061L301.293 20.2472ZM294.501 19.4205V18.4205H293.501V19.4205H294.501ZM297.773 34H292.387V36H297.773V34ZM293.387 35V17.5455H291.387V35H293.387ZM292.387 18.5455H298.012V16.5455H292.387V18.5455ZM298.012 18.5455C299.567 18.5455 300.835 18.8656 301.857 19.4587L302.861 17.7288C301.474 16.9242 299.844 16.5455 298.012 16.5455V18.5455ZM301.86 19.4605C302.885 20.0503 303.673 20.896 304.232 22.0277L306.025 21.1427C305.3 19.6721 304.242 18.5235 302.857 17.727L301.86 19.4605ZM304.233 22.0293C304.791 23.1566 305.092 24.5483 305.092 26.2386H307.092C307.092 24.3153 306.75 22.6048 306.025 21.1412L304.233 22.0293ZM305.092 26.2386C305.092 27.9397 304.789 29.3465 304.223 30.4921L306.017 31.3772C306.747 29.8978 307.092 28.1739 307.092 26.2386H305.092ZM304.224 30.4906C303.663 31.6233 302.857 32.4789 301.796 33.0825L302.785 34.8209C304.201 34.0154 305.282 32.8597 306.016 31.3788L304.224 30.4906ZM301.799 33.0808C300.743 33.6766 299.416 34 297.773 34V36C299.676 36 301.361 35.6246 302.782 34.8226L301.799 33.0808ZM294.501 34.125H297.637V32.125H294.501V34.125ZM297.637 34.125C299.204 34.125 300.588 33.823 301.731 33.1522L300.719 31.4273C299.964 31.8702 298.956 32.125 297.637 32.125V34.125ZM301.731 33.1522C302.863 32.488 303.709 31.5359 304.258 30.3246L302.436 29.4993C302.053 30.3448 301.485 30.9779 300.719 31.4273L301.731 33.1522ZM304.258 30.3246C304.796 29.1376 305.046 27.7658 305.046 26.2386H303.046C303.046 27.5523 302.83 28.6294 302.436 29.4993L304.258 30.3246ZM305.046 26.2386C305.046 24.7234 304.799 23.363 304.267 22.1872L302.445 23.0117C302.833 23.8699 303.046 24.9357 303.046 26.2386H305.046ZM304.268 22.1891C303.728 20.9899 302.906 20.0445 301.805 19.3883L300.781 21.1061C301.51 21.5408 302.063 22.1635 302.444 23.0098L304.268 22.1891ZM301.809 19.3906C300.701 18.723 299.372 18.4205 297.876 18.4205V20.4205C299.107 20.4205 300.056 20.6691 300.777 21.1037L301.809 19.3906ZM297.876 18.4205H294.501V20.4205H297.876V18.4205ZM293.501 19.4205V33.125H295.501V19.4205H293.501Z" fill="black" fill-opacity="0.25"/>
<defs>
<filter id="filter0_d_60_246" x="0" y="0" width="445" height="65" filterUnits="userSpaceOnUse" color-interpolation-filters="sRGB">
<feFlood flood-opacity="0" result="BackgroundImageFix"/>
<feColorMatrix in="SourceAlpha" type="matrix" values="0 0 0 0 0 0 0 0 0 0 0 0 0 0 0 0 0 0 127 0" result="hardAlpha"/>
<feOffset dx="4" dy="4"/>
<feGaussianBlur stdDeviation="2"/>
<feComposite in2="hardAlpha" operator="out"/>
<feColorMatrix type="matrix" values="0 0 0 0 0 0 0 0 0 0 0 0 0 0 0 0 0 0 0.25 0"/>
<feBlend mode="normal" in2="BackgroundImageFix" result="effect1_dropShadow_60_246"/>
<feBlend mode="normal" in="SourceGraphic" in2="effect1_dropShadow_60_246" result="shape"/>
</filter>
</defs>
</svg>
